<svg version="1.1" id="Layer_1" xmlns="http://www.w3.org/2000/svg" xmlns:xlink="http://www.w3.org/1999/xlink" x="0px" y="0px"
	 width="100%" viewBox="0 0 896 896" enable-background="new 0 0 896 896" xml:space="preserve">
<path fill="none" opacity="1.000000" stroke="none" 
	d="
M1.000000,611.000000 
	C1.000000,407.706635 1.000000,204.413300 1.000000,1.059974 
	C299.567932,1.059974 598.135925,1.059974 897.000000,1.059974 
	C897.000000,204.027939 897.000000,407.056030 896.656006,610.365601 
	C895.026794,606.424500 894.113281,602.043579 892.393005,598.006409 
	C884.333679,579.093933 869.886536,565.571228 853.725403,553.797852 
	C825.530151,533.257690 793.833923,519.776123 760.740967,508.510254 
	C760.366943,506.352997 760.023621,504.554108 760.022583,502.755066 
	C759.993652,452.131226 760.004028,401.507416 759.987610,350.883575 
	C759.986694,347.897156 759.488831,344.910309 763.489441,343.682129 
	C764.312439,343.429474 764.917297,341.138885 764.929810,339.781250 
	C765.040833,327.792419 765.116943,315.799469 764.855652,303.815338 
	C764.819458,302.156708 763.206055,299.520874 761.778564,299.073425 
	C754.267334,296.718872 746.581299,294.921906 738.979370,292.521423 
	C739.557190,289.222198 740.160889,286.341339 740.657715,283.442200 
	C743.382751,267.538788 742.797668,252.251511 733.143127,238.313629 
	C731.844299,236.438599 731.627136,233.006699 732.305603,230.707901 
	C735.419373,220.157867 735.664429,209.748749 732.485107,199.358414 
	C724.212097,196.919052 716.120300,198.249359 709.192322,201.697708 
	C697.762451,207.386917 686.835449,207.409378 675.430481,202.701843 
	C674.821106,202.450333 674.178284,202.060669 673.561340,202.079224 
	C664.589783,202.348801 659.246277,197.554291 656.379333,189.577423 
	C655.713013,187.723694 655.288757,185.358658 655.840088,183.562607 
	C658.734253,174.135666 658.490051,164.695618 657.146851,155.074554 
	C656.682434,151.747696 655.350586,151.090363 652.374268,150.931030 
	C641.104614,150.327820 630.963257,154.056412 620.928223,158.485764 
	C619.045288,159.316879 616.697205,160.273895 614.868652,159.851791 
	C605.139648,157.605911 595.620422,154.264862 585.807556,152.626419 
	C577.564148,151.250031 568.952271,150.890381 560.626465,151.575333 
	C554.018799,152.118927 548.688965,151.817749 543.426636,147.146729 
	C536.277344,140.800781 527.968811,136.030304 518.653503,133.352264 
	C514.959900,132.290375 512.015442,132.717438 510.411560,137.033005 
	C506.709686,146.993683 503.351318,156.926331 505.746216,167.815125 
	C505.951111,168.746750 505.046356,169.922440 504.473022,171.487091 
	C501.218262,167.257156 498.421814,163.822861 495.894318,160.200912 
	C495.241943,159.266068 494.962433,157.587677 495.313721,156.512985 
	C497.917572,148.546173 497.639648,140.406052 495.800110,132.536484 
	C493.527222,122.813042 495.183044,121.878273 483.853760,123.887085 
	C475.466553,125.374229 467.794159,128.210815 460.626495,132.777557 
	C457.011230,135.080917 453.275665,135.557526 448.606049,134.548996 
	C431.932495,130.947845 415.044556,129.249695 398.065552,132.961227 
	C390.701630,134.570953 384.323181,133.702820 377.863495,128.672760 
	C370.335785,122.811058 361.497681,118.636093 351.394318,119.069016 
	C350.141724,119.122688 348.120026,119.860924 347.825134,120.741096 
	C344.962463,129.285477 341.802673,137.752472 343.581604,147.163559 
	C344.358521,151.273544 346.271942,155.703003 342.800690,159.812424 
	C339.736572,163.439865 337.008301,167.350952 334.265564,170.960648 
	C331.860565,167.884109 329.086914,164.425949 326.414520,160.891251 
	C323.915192,157.585449 321.306030,157.737244 317.842102,159.679413 
	C308.263702,165.049866 302.202332,173.685806 296.448517,182.488770 
	C294.732117,185.114792 292.954132,186.331192 290.169281,187.014847 
	C271.566498,191.581696 254.373184,199.289169 239.382965,211.273132 
	C234.301529,215.335480 229.351013,215.224564 223.490570,214.423889 
	C214.082092,213.138489 204.678436,213.835251 195.623917,217.145142 
	C192.975189,218.113403 191.474731,219.775665 192.009628,222.795822 
	C193.829330,233.070282 196.555481,243.025543 203.674805,251.036118 
	C205.855728,253.490067 206.145721,255.569458 205.369232,258.650085 
	C203.234451,267.119598 203.272034,275.661987 205.520538,284.237122 
	C203.122818,284.922028 201.082413,285.516052 199.016525,286.001740 
	C190.162476,288.083313 181.650299,292.416290 172.106110,290.045105 
	C171.199997,289.819946 170.104950,290.058929 169.163193,290.319427 
	C159.666306,292.946533 150.193100,295.659607 140.690384,298.265137 
	C137.579254,299.118164 135.928238,300.743530 135.960968,304.210968 
	C136.074142,316.199188 135.951874,328.189758 136.081436,340.177673 
	C136.094925,341.426788 136.884766,343.370300 137.834732,343.777466 
	C140.938126,345.107513 141.045975,347.387756 141.042786,350.203125 
	C140.985443,400.824677 141.011383,451.446381 140.961716,502.067993 
	C140.959824,504.001984 140.378891,505.935364 139.684082,507.929901 
	C137.276596,508.672638 135.248260,509.341309 133.229706,510.038330 
	C105.467300,519.624756 78.642982,531.219849 53.798965,547.070923 
	C40.719730,555.415771 28.957586,565.358765 18.692497,576.943420 
	C10.000216,586.753052 4.462149,598.381531 1.000000,611.000000 
z"/>
<path fill="none" opacity="1.000000" stroke="none" 
	d="
M897.000000,632.000000 
	C897.000000,720.306824 897.000000,808.613586 897.000000,896.960205 
	C598.449524,896.960205 299.899048,896.960205 1.000000,896.960205 
	C1.000000,808.976196 1.000000,720.951965 1.346618,632.645874 
	C2.086122,634.116394 2.377066,635.899170 2.887764,637.616516 
	C7.599437,653.460571 17.372040,665.766846 29.259207,676.950256 
	C44.217243,691.022705 61.297928,701.896057 79.605614,710.598022 
	C97.666733,719.182861 116.494530,726.154724 135.361053,733.924194 
	C143.956223,736.781738 152.051025,740.028137 160.422134,742.218628 
	C178.579987,746.970032 196.787994,751.612427 215.145676,755.494690 
	C234.092026,759.501526 253.189453,762.872681 272.316986,765.917786 
	C286.243866,768.134949 300.317657,769.454468 314.342957,771.021973 
	C330.592773,772.838074 346.838226,774.762695 363.128906,776.121033 
	C375.791962,777.176880 388.522156,777.965393 401.221222,777.947510 
	C435.138580,777.899780 469.060760,777.615417 502.969788,776.894470 
	C519.797668,776.536682 536.616455,775.220825 553.409973,773.949707 
	C566.624634,772.949585 579.807678,771.473755 592.980103,769.989502 
	C606.444824,768.472351 619.976013,767.237244 633.305542,764.895996 
	C655.429138,761.010193 677.597412,757.089722 699.407715,751.788635 
	C721.821472,746.341003 743.828857,739.221863 766.364868,732.759460 
	C768.226990,732.079041 769.725159,731.437317 771.251892,730.873108 
	C795.616516,721.868835 819.455566,711.725586 841.468933,697.764282 
	C857.185120,687.796692 871.710083,676.418701 883.066589,661.416565 
	C889.766052,652.566345 894.064270,642.614685 897.000000,632.000000 
z"/>
<path fill="#9CDAF0" opacity="1.000000" stroke="none" 
	d="
M134.985962,733.834229 
	C116.494530,726.154724 97.666733,719.182861 79.605614,710.598022 
	C61.297928,701.896057 44.217243,691.022705 29.259207,676.950256 
	C17.372040,665.766846 7.599437,653.460571 2.887764,637.616516 
	C2.377066,635.899170 2.086122,634.116394 1.346618,632.182007 
	C1.000000,625.312378 1.000000,618.624695 1.000000,611.468506 
	C4.462149,598.381531 10.000216,586.753052 18.692497,576.943420 
	C28.957586,565.358765 40.719730,555.415771 53.798965,547.070923 
	C78.642982,531.219849 105.467300,519.624756 133.229706,510.038330 
	C135.248260,509.341309 137.276596,508.672638 139.965607,508.248169 
	C140.762589,516.278748 141.234451,524.064270 140.951218,531.822327 
	C140.449448,545.567444 139.488907,559.295776 138.445038,573.222656 
	C137.112717,576.024658 135.143173,578.631714 135.133591,581.246033 
	C134.947525,632.108276 134.990204,682.971313 134.985962,733.834229 
z"/>
<path fill="#9CDAF0" opacity="1.000000" stroke="none" 
	d="
M897.000000,631.531494 
	C894.064270,642.614685 889.766052,652.566345 883.066589,661.416565 
	C871.710083,676.418701 857.185120,687.796692 841.468933,697.764282 
	C819.455566,711.725586 795.616516,721.868835 771.251892,730.873108 
	C769.725159,731.437317 768.226990,732.079041 766.361084,732.302429 
	C766.005066,682.040527 766.045105,632.160889 765.876282,582.281860 
	C765.868042,579.849976 764.028809,577.424194 763.013550,574.528320 
	C762.872437,568.252136 764.326294,561.769348 762.199829,556.826904 
	C760.139343,552.037720 760.085693,547.664124 760.005371,543.016113 
	C759.838684,533.373779 759.907227,523.726135 759.998962,514.081787 
	C760.015564,512.341248 760.605713,510.606171 760.931091,508.868561 
	C793.833923,519.776123 825.530151,533.257690 853.725403,553.797852 
	C869.886536,565.571228 884.333679,579.093933 892.393005,598.006409 
	C894.113281,602.043579 895.026794,606.424500 896.656006,610.823486 
	C897.000000,617.687622 897.000000,624.375305 897.000000,631.531494 
z"/>
<path fill="#010101" opacity="1.000000" stroke="none" 
	d="
M205.866104,284.096375 
	C203.272034,275.661987 203.234451,267.119598 205.369232,258.650085 
	C206.145721,255.569458 205.855728,253.490067 203.674805,251.036118 
	C196.555481,243.025543 193.829330,233.070282 192.009628,222.795822 
	C191.474731,219.775665 192.975189,218.113403 195.623917,217.145142 
	C204.678436,213.835251 214.082092,213.138489 223.490570,214.423889 
	C229.351013,215.224564 234.301529,215.335480 239.382965,211.273132 
	C254.373184,199.289169 271.566498,191.581696 290.169281,187.014847 
	C292.954132,186.331192 294.732117,185.114792 296.448517,182.488770 
	C302.202332,173.685806 308.263702,165.049866 317.842102,159.679413 
	C321.306030,157.737244 323.915192,157.585449 326.414520,160.891251 
	C329.086914,164.425949 331.860565,167.884109 334.265564,170.960648 
	C337.008301,167.350952 339.736572,163.439865 342.800690,159.812424 
	C346.271942,155.703003 344.358521,151.273544 343.581604,147.163559 
	C341.802673,137.752472 344.962463,129.285477 347.825134,120.741096 
	C348.120026,119.860924 350.141724,119.122688 351.394318,119.069016 
	C361.497681,118.636093 370.335785,122.811058 377.863495,128.672760 
	C384.323181,133.702820 390.701630,134.570953 398.065552,132.961227 
	C415.044556,129.249695 431.932495,130.947845 448.606049,134.548996 
	C453.275665,135.557526 457.011230,135.080917 460.626495,132.777557 
	C467.794159,128.210815 475.466553,125.374229 483.853760,123.887085 
	C495.183044,121.878273 493.527222,122.813042 495.800110,132.536484 
	C497.639648,140.406052 497.917572,148.546173 495.313721,156.512985 
	C494.962433,157.587677 495.241943,159.266068 495.894318,160.200912 
	C498.421814,163.822861 501.218262,167.257156 504.473022,171.487091 
	C505.046356,169.922440 505.951111,168.746750 505.746216,167.815125 
	C503.351318,156.926331 506.709686,146.993683 510.411560,137.033005 
	C512.015442,132.717438 514.959900,132.290375 518.653503,133.352264 
	C527.968811,136.030304 536.277344,140.800781 543.426636,147.146729 
	C548.688965,151.817749 554.018799,152.118927 560.626465,151.575333 
	C568.952271,150.890381 577.564148,151.250031 585.807556,152.626419 
	C595.620422,154.264862 605.139648,157.605911 614.868652,159.851791 
	C616.697205,160.273895 619.045288,159.316879 620.928223,158.485764 
	C630.963257,154.056412 641.104614,150.327820 652.374268,150.931030 
	C655.350586,151.090363 656.682434,151.747696 657.146851,155.074554 
	C658.490051,164.695618 658.734253,174.135666 655.840088,183.562607 
	C655.288757,185.358658 655.713013,187.723694 656.379333,189.577423 
	C659.246277,197.554291 664.589783,202.348801 673.561340,202.079224 
	C674.178284,202.060669 674.821106,202.450333 675.430481,202.701843 
	C686.835449,207.409378 697.762451,207.386917 709.192322,201.697708 
	C716.120300,198.249359 724.212097,196.919052 732.485107,199.358414 
	C735.664429,209.748749 735.419373,220.157867 732.305603,230.707901 
	C731.627136,233.006699 731.844299,236.438599 733.143127,238.313629 
	C742.797668,252.251511 743.382751,267.538788 740.657715,283.442200 
	C740.160889,286.341339 739.557190,289.222198 738.708435,292.715454 
	C738.294922,293.958344 738.175842,294.597229 737.639648,295.296753 
	C730.443726,292.670746 723.751221,293.253601 717.052246,295.456787 
	C716.821411,277.431427 707.400818,265.848572 689.974854,262.748230 
	C682.474854,261.413879 674.720581,261.574554 667.157104,260.517548 
	C651.695923,258.356812 636.300110,255.732666 620.848877,253.495544 
	C612.296448,252.257263 604.140686,252.801361 596.505493,257.988708 
	C577.085266,271.182831 578.581543,303.337921 597.821899,314.549713 
	C605.298462,318.906464 613.806885,321.492371 621.482727,324.978668 
	C616.410034,326.340210 611.699890,327.608032 606.936279,328.536469 
	C604.624023,327.108643 602.365173,326.020172 599.476196,324.628052 
	C599.253113,327.371338 599.109131,329.141785 598.618164,331.044373 
	C593.520874,332.652222 588.770569,334.127960 584.041138,335.144653 
	C584.644043,330.591156 585.345398,326.508911 585.767151,322.397949 
	C586.055969,319.582520 586.741577,316.308136 582.029419,315.655121 
	C580.992310,322.845398 579.978088,329.876556 578.623779,337.073212 
	C566.541687,340.443726 554.799805,343.648712 543.067017,346.442993 
	C544.805237,332.884216 546.534302,319.736176 548.263306,306.588165 
	C547.754822,306.478729 547.246338,306.369293 546.737854,306.259857 
	C543.149841,309.707397 542.737061,314.504883 542.066406,319.114777 
	C540.660217,328.781189 539.412720,338.470703 537.819885,348.397949 
	C531.341675,350.359528 525.143555,352.073822 519.036072,353.409729 
	C527.693970,343.194214 524.776611,330.739655 526.918762,319.169739 
	C521.177490,331.465637 512.212830,340.040619 499.614349,345.253021 
	C487.222260,349.859406 474.583649,350.254578 462.930023,350.151245 
	C465.075470,355.998322 467.136780,361.615967 468.927612,367.484375 
	C465.782043,368.558411 462.906891,369.381714 459.641785,370.193909 
	C453.197083,370.395630 447.142395,370.608459 440.922729,370.494659 
	C427.516388,366.400360 414.274994,362.632629 400.988434,358.487061 
	C401.960632,355.404999 402.978058,352.700745 404.129944,349.948639 
	C404.177582,349.935455 404.090729,349.970184 403.608704,350.003662 
	C401.467468,350.499664 399.739929,351.301941 397.970276,351.409058 
	C396.169525,351.518097 394.327332,350.942596 392.503265,350.666840 
	C393.010803,348.923798 393.403259,347.134827 394.072876,345.456451 
	C394.423889,344.576538 395.566315,343.973785 395.805542,343.096985 
	C396.148163,341.840942 396.505524,339.640259 395.941650,339.281647 
	C394.741547,338.518463 392.654144,338.030487 391.455627,338.578461 
	C386.219727,340.972321 381.171692,343.777069 375.915497,346.505341 
	C376.460968,348.075989 377.217651,350.254913 377.574036,352.364990 
	C352.050415,345.366364 326.914673,338.481140 301.813110,331.473480 
	C296.024048,329.857300 290.352051,327.821747 285.047974,325.980133 
	C308.704498,319.973907 329.934601,309.506073 350.039703,296.650146 
	C353.496033,294.440063 356.625275,291.509613 359.373138,288.435883 
	C372.897278,273.307922 368.288422,245.728851 350.867981,235.238998 
	C339.482849,228.383331 328.278381,229.315414 317.289948,235.523453 
	C298.745544,246.000336 279.626373,255.196564 259.731140,262.794434 
	C258.031342,263.443573 256.403290,264.311432 254.806595,265.194672 
	C238.210571,274.374847 233.215668,292.649933 242.757156,309.131683 
	C243.890976,311.090149 244.917007,313.111084 245.696838,315.450684 
	C235.962723,313.177521 226.524765,310.556763 216.882004,307.661316 
	C215.626938,305.915466 214.576706,304.444275 213.663010,302.638824 
	C211.572327,297.504974 209.345108,292.705383 207.128555,287.565948 
	C206.714844,286.182861 206.290466,285.139618 205.866104,284.096375 
M452.734863,212.719727 
	C456.762848,213.208221 460.790863,213.696732 465.263702,214.769760 
	C467.185822,215.130585 469.107910,215.491409 471.715240,216.161102 
	C476.616028,217.611389 481.516846,219.061661 486.797211,220.624268 
	C485.359100,203.610123 474.132996,192.140930 458.581635,190.949066 
	C453.461609,190.556671 448.299316,190.707993 443.156097,190.626785 
	C431.870087,190.448608 420.576782,190.470139 409.300140,190.046432 
	C400.842468,189.728653 392.413116,188.466904 383.958435,188.309479 
	C374.110016,188.126083 365.417114,191.142929 359.577118,199.519516 
	C363.117615,204.191513 366.509125,208.666901 370.000854,213.837967 
	C371.125885,215.937103 372.250916,218.036224 373.274261,219.945618 
	C374.468140,214.211975 375.635712,208.604553 377.122925,202.341553 
	C377.478485,201.411896 377.807007,200.470825 378.193939,199.554398 
	C381.263306,192.284225 382.544403,191.053909 389.536102,194.508667 
	C398.531830,198.953705 406.766388,204.932755 415.371552,210.181000 
	C416.832733,211.072174 418.505829,212.208115 420.085419,212.214981 
	C429.051605,212.253983 438.019165,211.984177 447.825897,212.003357 
	C449.248260,212.117371 450.670593,212.231369 452.734863,212.719727 
M527.454956,254.336960 
	C527.454956,254.336960 527.419922,254.364166 527.603455,255.081543 
	C529.386292,260.248566 531.070007,265.453461 533.019714,270.556732 
	C533.525330,271.880188 534.667480,273.597900 535.850464,273.923309 
	C544.604248,276.331604 553.442261,278.433594 562.108582,280.595673 
	C562.603760,279.462219 562.854675,279.163635 562.836548,278.882446 
	C562.751038,277.554443 562.526062,276.234009 562.468872,274.905792 
	C561.606934,254.905609 563.904114,235.829529 579.434204,221.077316 
	C582.385742,218.273636 583.578735,215.836212 581.415771,212.281311 
	C579.369019,211.975952 577.394653,211.716049 575.432678,211.382935 
	C563.957031,209.434769 552.518616,207.226151 540.998108,205.598022 
	C533.695374,204.565948 526.573364,205.564056 521.539307,209.588608 
	C522.944275,211.941116 524.538147,213.661240 525.035156,215.654846 
	C525.872314,219.012787 526.013367,222.544281 526.254761,226.886703 
	C525.630981,231.466721 525.680603,236.277939 524.208130,240.566559 
	C522.479309,245.601685 523.184631,249.446564 526.817261,253.538727 
	C527.015808,253.801941 527.214355,254.065170 527.454956,254.336960 
M420.552887,338.014374 
	C438.591980,341.153107 456.659180,344.099426 475.074036,343.000977 
	C496.858459,341.701508 512.318970,322.334473 508.799377,300.910156 
	C506.235870,285.306091 494.927490,275.317841 477.432800,274.072723 
	C457.342804,272.642883 437.382660,270.650330 417.653320,266.325897 
	C408.198547,264.253510 398.450317,263.424957 389.699036,269.407959 
	C369.420563,283.271820 369.573669,313.145782 390.002533,326.903900 
	C399.007355,332.968353 409.308472,335.589600 420.552887,338.014374 
M358.777130,305.807587 
	C357.975861,304.260010 357.174591,302.712433 356.228546,300.885193 
	C352.299133,303.509735 348.910797,305.772858 344.697205,308.587189 
	C361.751587,312.183685 365.664307,326.670685 371.972626,338.756897 
	C380.242126,334.570892 380.563995,332.139587 374.573059,326.966644 
	C367.971283,321.266296 362.180908,314.862152 358.777130,305.807587 
M566.680237,305.928833 
	C565.571472,306.834015 563.396240,307.949890 563.526672,308.610291 
	C564.385864,312.959137 558.772827,317.848053 564.557922,321.685028 
	C564.731873,321.800446 565.152954,321.543213 565.896423,321.340240 
	C566.342651,316.449066 566.803040,311.401825 566.680237,305.928833 
M532.529114,293.147369 
	C532.439941,293.772797 532.350769,294.398193 532.226440,295.270386 
	C535.778687,291.403870 539.116089,287.771240 542.881592,283.672699 
	C539.925964,282.957306 537.327759,282.328430 534.228699,281.578308 
	C533.672546,285.660278 533.209778,289.056946 532.529114,293.147369 
z"/>
<path fill="#A0A0A0" opacity="1.000000" stroke="none" 
	d="
M205.520538,284.237122 
	C206.290466,285.139618 206.714844,286.182861 206.712372,287.559326 
	C198.543854,289.963745 190.802216,292.034943 182.696289,294.165222 
	C178.971115,293.871094 175.398697,292.608398 172.288223,293.331848 
	C162.182983,295.682129 152.242523,298.744293 142.257858,301.599670 
	C141.727753,301.751282 141.374527,302.521332 140.662704,303.314636 
	C140.249237,314.086456 140.304245,324.555054 139.873474,335.003601 
	C139.716721,338.805939 140.837952,341.321381 144.056030,343.519470 
	C144.038635,412.634674 144.037216,481.284851 144.012604,549.934998 
	C144.011780,552.256958 143.777542,554.578857 143.306183,557.062378 
	C142.653549,557.784668 142.082214,558.343933 142.079117,558.906372 
	C142.011978,571.052856 141.875275,583.202942 142.170990,595.342163 
	C142.205566,596.761414 144.456818,598.850952 146.086227,599.380188 
	C152.699921,601.527893 159.469315,603.197876 166.187088,605.022644 
	C168.829147,605.740417 171.486496,606.401917 175.100494,607.338806 
	C175.100494,593.024780 175.100494,579.599792 175.327759,566.132568 
	C175.555038,566.090393 176.009460,566.005310 176.320892,566.063354 
	C177.088821,566.748657 177.545349,567.375793 177.956421,568.326721 
	C177.989258,569.078491 178.067551,569.506592 178.062408,570.401123 
	C177.950500,581.024231 178.060364,591.184265 177.814545,601.335632 
	C177.734283,604.650085 178.991302,606.039795 182.009399,606.870667 
	C225.518524,618.847961 269.009766,630.890198 312.500275,642.935120 
	C347.334259,652.582581 382.161377,662.254822 417.002625,672.314758 
	C418.017059,673.798340 418.825775,675.324158 420.066376,675.871826 
	C422.314484,676.864380 424.820587,677.271606 427.217865,677.927429 
	C434.525482,679.926270 441.832520,681.927124 450.110657,684.192932 
	C450.110657,670.048401 450.110657,656.627014 450.472168,643.149292 
	C452.567596,642.399292 454.301514,641.705750 456.015747,641.001343 
	C455.996124,640.990479 455.987732,641.034546 456.355896,641.066162 
	C457.828735,640.735474 458.933380,640.373047 460.016174,640.000000 
	C459.994354,639.989441 459.985138,640.037109 460.352539,640.059570 
	C461.828094,639.723938 462.936249,639.365845 464.018372,638.997986 
	C463.992340,638.988220 463.981354,639.042725 464.326599,639.052979 
	C465.459778,638.713074 466.247711,638.362915 467.015869,638.002014 
	C466.996124,637.991272 466.989471,638.035706 467.397034,638.060181 
	C471.216034,637.059875 474.627411,636.035034 478.016296,635.000488 
	C477.993774,634.990784 477.987518,635.039490 478.357117,635.060059 
	C479.464203,635.041870 480.201660,635.003235 481.249939,634.929077 
	C481.393585,633.225647 481.226440,631.557739 481.449341,629.942871 
	C489.615906,627.835815 497.392426,625.675659 505.564636,623.436401 
	C511.303741,621.847778 516.647156,620.338135 522.374146,618.833252 
	C530.505493,616.564453 538.253235,614.290955 546.398071,612.029419 
	C552.861328,610.320374 558.927429,608.599365 565.378540,606.884766 
	C571.507507,605.222351 577.251526,603.553467 583.380615,601.889954 
	C591.841492,599.566650 599.917114,597.237976 608.380859,594.913208 
	C615.206543,593.043335 621.644165,591.169678 628.485718,589.259216 
	C636.973877,586.933228 645.058105,584.643921 653.539795,582.294250 
	C661.040894,580.211609 668.144470,578.189392 675.636719,576.146362 
	C681.707642,574.503296 687.389832,572.880920 693.472534,571.222046 
	C700.861328,569.445679 707.849670,567.705811 715.259521,565.968262 
	C718.380371,566.594421 721.079712,567.218445 723.778992,567.842407 
	C723.740723,568.362366 723.702393,568.882324 723.664124,569.402283 
	C722.181824,569.931274 720.725952,570.555298 719.213440,570.975342 
	C682.435913,581.186768 645.652832,591.378052 608.869751,601.569519 
	C569.690308,612.424927 530.515625,623.297424 491.324707,634.111145 
	C484.032562,636.123230 484.001526,636.011353 484.001282,643.777710 
	C484.001068,651.106750 483.984955,658.435791 484.014252,665.764709 
	C484.020630,667.361267 484.190155,668.957092 484.319702,671.146851 
	C487.318665,670.492798 489.728851,670.087158 492.071594,669.438110 
	C525.017273,660.310303 557.949341,651.133362 590.893738,642.000793 
	C623.682190,632.911377 656.470886,623.821960 689.280457,614.809021 
	C701.154236,611.547241 713.088928,608.506897 726.080566,605.079285 
	C726.080566,593.041565 726.080566,579.604858 726.479492,566.120117 
	C732.791626,564.472351 738.739563,562.989014 744.606079,561.233459 
	C748.814941,559.973999 752.914795,558.350525 757.045532,556.427979 
	C757.027710,485.100891 757.027710,414.235199 757.027710,342.550049 
	C753.764038,343.463257 751.749268,344.092560 749.702271,344.588074 
	C742.142273,346.417999 734.571594,348.203735 726.758911,349.999023 
	C726.512878,349.991943 726.020630,349.984467 726.011536,349.992249 
	C726.002441,350.000000 726.015076,349.984009 726.014771,349.741699 
	C726.014526,349.499390 726.015381,349.014740 726.020142,348.545197 
	C726.012451,336.720093 726.000061,325.364563 725.991394,313.758179 
	C725.998901,313.340179 726.002808,313.172974 726.305603,312.970032 
	C727.113647,312.395325 727.622803,311.856293 728.526855,311.241791 
	C739.047363,308.405426 749.172913,305.644501 759.298523,302.883606 
	C759.260315,302.541534 759.222107,302.199493 759.183899,301.857422 
	C752.141541,299.650330 745.099121,297.443207 738.056763,295.236115 
	C738.175842,294.597229 738.294922,293.958344 738.684937,293.125427 
	C746.581299,294.921906 754.267334,296.718872 761.778564,299.073425 
	C763.206055,299.520874 764.819458,302.156708 764.855652,303.815338 
	C765.116943,315.799469 765.040833,327.792419 764.929810,339.781250 
	C764.917297,341.138885 764.312439,343.429474 763.489441,343.682129 
	C759.488831,344.910309 759.986694,347.897156 759.987610,350.883575 
	C760.004028,401.507416 759.993652,452.131226 760.022583,502.755066 
	C760.023621,504.554108 760.366943,506.352997 760.740967,508.510254 
	C760.605713,510.606171 760.015564,512.341248 759.998962,514.081787 
	C759.907227,523.726135 759.838684,533.373779 760.005371,543.016113 
	C760.085693,547.664124 760.139343,552.037720 762.199829,556.826904 
	C764.326294,561.769348 762.872437,568.252136 762.984375,574.996582 
	C762.976379,582.097412 762.642639,588.285095 763.065063,594.420715 
	C763.401367,599.305542 761.305481,601.017761 756.883301,602.133911 
	C743.566650,605.494995 730.186523,608.370728 716.717896,611.103577 
	C692.835083,615.949524 669.519104,623.604736 645.987427,630.161560 
	C620.373779,637.298462 594.801086,644.583008 569.179932,651.692688 
	C543.561829,658.801575 517.899963,665.752747 492.278778,672.850403 
	C490.456696,673.355103 488.750671,674.393372 487.098816,675.367004 
	C485.342682,676.402039 483.866821,678.126892 482.003479,678.725647 
	C476.313080,680.554077 470.537781,682.169495 464.714722,683.519226 
	C459.110931,684.818115 453.177673,687.210510 447.796021,686.404907 
	C438.007416,684.939453 428.513031,681.486389 418.915009,678.794556 
	C417.501556,678.398132 416.139526,677.724548 414.846832,677.010620 
	C411.959198,675.415710 409.323761,673.026672 406.247925,672.161438 
	C370.259430,662.037354 334.347260,651.593567 298.137421,642.317444 
	C256.047546,631.534912 215.177673,616.099854 171.945328,609.593872 
	C162.162964,608.121704 152.760590,604.209106 143.122467,601.648865 
	C139.680038,600.734497 138.808685,598.825073 138.869492,595.511719 
	C139.006943,588.021606 138.791977,580.525085 138.720337,573.031128 
	C139.488907,559.295776 140.449448,545.567444 140.951218,531.822327 
	C141.234451,524.064270 140.762589,516.278748 140.349304,508.187317 
	C140.378891,505.935364 140.959824,504.001984 140.961716,502.067993 
	C141.011383,451.446381 140.985443,400.824677 141.042786,350.203125 
	C141.045975,347.387756 140.938126,345.107513 137.834732,343.777466 
	C136.884766,343.370300 136.094925,341.426788 136.081436,340.177673 
	C135.951874,328.189758 136.074142,316.199188 135.960968,304.210968 
	C135.928238,300.743530 137.579254,299.118164 140.690384,298.265137 
	C150.193100,295.659607 159.666306,292.946533 169.163193,290.319427 
	C170.104950,290.058929 171.199997,289.819946 172.106110,290.045105 
	C181.650299,292.416290 190.162476,288.083313 199.016525,286.001740 
	C201.082413,285.516052 203.122818,284.922028 205.520538,284.237122 
z"/>
<path fill="#7EBAE6" opacity="1.000000" stroke="none" 
	d="
M138.445038,573.222656 
	C138.791977,580.525085 139.006943,588.021606 138.869492,595.511719 
	C138.808685,598.825073 139.680038,600.734497 143.122467,601.648865 
	C152.760590,604.209106 162.162964,608.121704 171.945328,609.593872 
	C215.177673,616.099854 256.047546,631.534912 298.137421,642.317444 
	C334.347260,651.593567 370.259430,662.037354 406.247925,672.161438 
	C409.323761,673.026672 411.959198,675.415710 414.846832,677.010620 
	C416.139526,677.724548 417.501556,678.398132 418.915009,678.794556 
	C428.513031,681.486389 438.007416,684.939453 447.796021,686.404907 
	C453.177673,687.210510 459.110931,684.818115 464.714722,683.519226 
	C470.537781,682.169495 476.313080,680.554077 482.003479,678.725647 
	C483.866821,678.126892 485.342682,676.402039 487.098816,675.367004 
	C488.750671,674.393372 490.456696,673.355103 492.278778,672.850403 
	C517.899963,665.752747 543.561829,658.801575 569.179932,651.692688 
	C594.801086,644.583008 620.373779,637.298462 645.987427,630.161560 
	C669.519104,623.604736 692.835083,615.949524 716.717896,611.103577 
	C730.186523,608.370728 743.566650,605.494995 756.883301,602.133911 
	C761.305481,601.017761 763.401367,599.305542 763.065063,594.420715 
	C762.642639,588.285095 762.976379,582.097412 763.012939,575.463867 
	C764.028809,577.424194 765.868042,579.849976 765.876282,582.281860 
	C766.045105,632.160889 766.005066,682.040527 766.010376,732.377136 
	C743.828857,739.221863 721.821472,746.341003 699.407715,751.788635 
	C677.597412,757.089722 655.429138,761.010193 633.305542,764.895996 
	C619.976013,767.237244 606.444824,768.472351 592.980103,769.989502 
	C579.807678,771.473755 566.624634,772.949585 553.409973,773.949707 
	C536.616455,775.220825 519.797668,776.536682 502.969788,776.894470 
	C469.060760,777.615417 435.138580,777.899780 401.221222,777.947510 
	C388.522156,777.965393 375.791962,777.176880 363.128906,776.121033 
	C346.838226,774.762695 330.592773,772.838074 314.342957,771.021973 
	C300.317657,769.454468 286.243866,768.134949 272.316986,765.917786 
	C253.189453,762.872681 234.092026,759.501526 215.145676,755.494690 
	C196.787994,751.612427 178.579987,746.970032 160.422134,742.218628 
	C152.051025,740.028137 143.956223,736.781738 135.361053,733.924194 
	C134.990204,682.971313 134.947525,632.108276 135.133591,581.246033 
	C135.143173,578.631714 137.112717,576.024658 138.445038,573.222656 
z"/>
<path fill="#E8E8E8" opacity="1.000000" stroke="none" 
	d="
M401.033630,358.864929 
	C414.274994,362.632629 427.516388,366.400360 440.751953,370.831604 
	C439.760101,372.012543 438.824036,372.684784 437.779816,373.021942 
	C431.533966,375.038818 425.263245,376.978516 418.649841,378.998230 
	C417.759979,379.890961 416.755554,380.728333 416.753418,381.568268 
	C416.728424,391.392181 416.911652,401.216614 416.885803,411.040497 
	C416.881287,412.760925 416.165894,414.479462 415.388123,416.150696 
	C407.902832,414.254303 400.808289,412.406128 393.384033,410.336609 
	C387.702942,408.744598 382.351501,407.373932 376.693604,405.776672 
	C370.281860,403.941956 364.176575,402.333832 357.792542,400.479797 
	C351.705048,398.736084 345.896362,397.238312 339.803589,395.500183 
	C333.409668,393.616333 327.299835,391.972839 320.862671,390.177002 
	C313.847290,388.273651 307.159180,386.522705 300.164246,384.521637 
	C293.238739,382.535278 286.620056,380.799042 279.669098,378.870239 
	C273.558685,377.140656 267.780548,375.603638 261.666260,373.881226 
	C254.220139,371.800995 247.110199,369.906189 239.686752,367.795258 
	C233.247253,365.963501 227.121262,364.347839 220.707123,362.504456 
	C214.946304,360.859039 209.473618,359.441284 203.684784,357.810913 
	C197.576584,356.040619 191.784561,354.482941 185.767944,352.639130 
	C181.987320,351.250122 178.431274,350.147217 174.892059,348.570740 
	C174.922653,336.686066 174.936432,325.274963 175.288742,313.739075 
	C188.714005,310.042938 201.141159,301.862823 215.611328,307.892822 
	C216.035507,308.069580 216.592010,307.928741 217.086823,307.935974 
	C226.524765,310.556763 235.962723,313.177521 245.700699,315.403259 
	C246.000717,315.008270 245.906158,314.996063 245.844604,315.411926 
	C246.333801,315.909607 246.884567,315.991425 247.697388,316.301605 
	C251.276489,317.482941 254.570755,318.525970 257.914978,319.371460 
	C266.807220,321.619507 275.720978,323.782379 284.626190,325.979156 
	C290.352051,327.821747 296.024048,329.857300 301.813110,331.473480 
	C326.914673,338.481140 352.050415,345.366364 377.868530,352.564240 
	C386.053406,354.843231 393.543518,356.854065 401.033630,358.864929 
z"/>
<path fill="#F2C8B0" opacity="1.000000" stroke="none" 
	d="
M420.132812,337.959534 
	C409.308472,335.589600 399.007355,332.968353 390.002533,326.903900 
	C369.573669,313.145782 369.420563,283.271820 389.699036,269.407959 
	C398.450317,263.424957 408.198547,264.253510 417.653320,266.325897 
	C437.382660,270.650330 457.342804,272.642883 477.432800,274.072723 
	C494.927490,275.317841 506.235870,285.306091 508.799377,300.910156 
	C512.318970,322.334473 496.858459,341.701508 475.074036,343.000977 
	C456.659180,344.099426 438.591980,341.153107 420.132812,337.959534 
M410.607513,277.371490 
	C405.374817,275.958496 401.314728,277.747620 397.709076,281.619110 
	C391.382080,288.412567 389.542877,301.908234 394.087067,310.011017 
	C398.059814,317.094849 405.014221,319.164062 411.264404,314.708405 
	C422.019653,307.041168 424.040161,284.371643 410.607513,277.371490 
M485.575531,287.374420 
	C479.087524,285.592468 474.056091,287.893066 470.535980,293.286896 
	C465.618896,300.821289 464.493286,309.067352 467.511230,317.579163 
	C469.194641,322.327118 472.401581,326.085236 477.714813,326.801117 
	C482.879120,327.496826 486.734650,324.616241 489.447174,320.628479 
	C491.274384,317.942200 492.642822,314.784149 493.522888,311.642822 
	C496.326050,301.637390 493.449310,292.588593 485.575531,287.374420 
M442.340271,330.266663 
	C437.063965,333.286163 434.152222,329.357544 430.948364,325.974121 
	C431.244598,331.000092 433.991150,333.492126 438.338928,333.806671 
	C442.146851,334.082184 445.230011,332.533173 445.844818,327.802795 
	C444.877655,328.464661 443.910492,329.126526 442.340271,330.266663 
M436.281860,318.697021 
	C437.348358,320.072662 438.247498,321.677032 439.597778,322.664764 
	C439.939819,322.914948 442.305176,321.400208 442.670929,320.330597 
	C443.024872,319.295715 441.951202,316.666321 441.589935,316.682159 
	C439.909546,316.755920 438.258789,317.504456 436.281860,318.697021 
z"/>
<path fill="#F2C8B0" opacity="1.000000" stroke="none" 
	d="
M285.047974,325.980133 
	C275.720978,323.782379 266.807220,321.619507 257.914978,319.371460 
	C254.570755,318.525970 251.276489,317.482941 247.516571,315.998383 
	C246.684525,315.309875 246.295349,315.152954 245.906158,314.996063 
	C245.906158,314.996063 246.000717,315.008270 245.996857,315.055664 
	C244.917007,313.111084 243.890976,311.090149 242.757156,309.131683 
	C233.215668,292.649933 238.210571,274.374847 254.806595,265.194672 
	C256.403290,264.311432 258.031342,263.443573 259.731140,262.794434 
	C279.626373,255.196564 298.745544,246.000336 317.289948,235.523453 
	C328.278381,229.315414 339.482849,228.383331 350.867981,235.238998 
	C368.288422,245.728851 372.897278,273.307922 359.373138,288.435883 
	C356.625275,291.509613 353.496033,294.440063 350.039703,296.650146 
	C329.934601,309.506073 308.704498,319.973907 285.047974,325.980133 
M322.668274,250.589096 
	C319.894531,263.055115 326.527893,276.287964 337.400299,279.977814 
	C343.555115,282.066650 349.119568,279.423523 351.374268,273.340057 
	C354.812439,264.063568 351.414276,253.675156 342.375946,245.875610 
	C335.410248,239.864609 325.917938,240.975388 322.668274,250.589096 
M284.773285,301.887268 
	C285.554810,291.602722 281.569031,283.420502 273.543732,277.209503 
	C269.833405,274.337982 265.517639,272.917633 260.990082,275.214386 
	C256.675842,277.402985 254.497421,281.273712 254.022507,286.029633 
	C253.207184,294.194580 256.342468,301.130768 261.639984,306.925201 
	C270.383575,316.488800 280.767639,314.420624 284.773285,301.887268 
M306.856079,305.899384 
	C310.439606,308.811737 314.187195,308.809021 317.869202,306.243378 
	C320.706268,304.266510 321.264679,301.858459 319.960663,297.840515 
	C319.526794,298.638458 319.188660,299.112885 318.994354,299.640259 
	C316.807739,305.576508 315.059875,306.394470 308.900726,304.594727 
	C308.215637,304.394562 307.283325,305.040497 306.856079,305.899384 
M311.019257,290.726044 
	C309.548370,291.646423 307.765594,292.329681 306.783356,293.621582 
	C306.459290,294.047821 307.937592,296.556458 309.089294,297.154022 
	C309.921112,297.585632 312.612640,296.530548 312.666138,295.966827 
	C312.819885,294.346832 312.055084,292.639679 311.019257,290.726044 
z"/>
<path fill="#F2C8B0" opacity="1.000000" stroke="none" 
	d="
M621.845276,324.884949 
	C613.806885,321.492371 605.298462,318.906464 597.821899,314.549713 
	C578.581543,303.337921 577.085266,271.182831 596.505493,257.988708 
	C604.140686,252.801361 612.296448,252.257263 620.848877,253.495544 
	C636.300110,255.732666 651.695923,258.356812 667.157104,260.517548 
	C674.720581,261.574554 682.474854,261.413879 689.974854,262.748230 
	C707.400818,265.848572 716.821411,277.431427 716.668945,295.549072 
	C711.502625,297.386993 706.659119,298.701782 701.837524,299.550812 
	C701.902100,295.597076 702.210693,292.088074 701.936584,288.625183 
	C701.174866,279.000854 693.369324,272.550201 685.661011,275.358246 
	C679.711853,277.525452 676.916199,282.768951 675.095276,288.460022 
	C672.817017,295.580505 673.982422,302.526154 677.392151,310.001221 
	C658.493530,315.065094 640.169434,319.975037 621.845276,324.884949 
M615.389465,264.925446 
	C612.741638,265.754120 609.504639,265.883484 607.547607,267.532135 
	C598.950684,274.774567 596.168274,290.732269 603.669128,300.131714 
	C608.605896,306.318085 614.680298,306.771484 620.459106,301.221832 
	C627.541321,294.420441 629.420288,285.913483 627.056458,276.482025 
	C625.601318,270.675690 622.850220,265.947021 615.389465,264.925446 
M648.276367,310.687805 
	C649.157166,309.280701 650.363159,307.955627 650.749512,306.423828 
	C650.892517,305.856689 649.037537,304.060211 648.221252,304.139343 
	C646.851562,304.272095 645.583923,305.458099 644.273315,306.200867 
	C645.358398,307.720856 646.443481,309.240845 648.276367,310.687805 
z"/>
<path fill="#FEFDFD" opacity="1.000000" stroke="none" 
	d="
M621.482727,324.978668 
	C640.169434,319.975037 658.493530,315.065094 677.392151,310.001221 
	C673.982422,302.526154 672.817017,295.580505 675.095276,288.460022 
	C676.916199,282.768951 679.711853,277.525452 685.661011,275.358246 
	C693.369324,272.550201 701.174866,279.000854 701.936584,288.625183 
	C702.210693,292.088074 701.902100,295.597076 701.479675,299.717529 
	C699.510010,300.532990 697.920105,300.715942 696.478394,300.507812 
	C696.411316,295.460266 696.855591,290.642883 695.771545,286.198242 
	C694.907654,282.655823 691.503784,280.816650 687.459656,281.768250 
	C681.145874,283.253876 677.103821,293.030670 679.495911,300.928467 
	C681.497803,307.538147 684.245239,308.513733 692.609314,305.568268 
	C693.072815,305.405029 693.501587,305.143280 694.345642,304.982300 
	C704.302612,307.561493 713.860474,310.085754 723.418335,312.610016 
	C721.696777,314.044067 720.045349,314.521179 718.388855,314.980377 
	C654.697815,332.635468 591.000244,350.266968 527.319580,367.959686 
	C513.164673,371.892365 499.069489,376.040009 484.661804,379.927429 
	C483.588898,379.445496 482.801025,379.124847 481.755707,378.556732 
	C476.481659,376.840057 471.406555,375.539185 466.474274,373.826996 
	C464.183685,373.031860 462.170624,371.437225 460.031738,370.205017 
	C462.906891,369.381714 465.782043,368.558411 469.325012,367.485168 
	C480.368042,364.258270 490.743225,361.281342 501.521057,358.264832 
	C507.597656,356.746246 513.271606,355.267181 518.945496,353.788116 
	C525.143555,352.073822 531.341675,350.359528 538.190308,348.407410 
	C540.246521,347.730957 541.652161,347.292358 543.057861,346.853760 
	C554.799805,343.648712 566.541687,340.443726 578.957397,337.095551 
	C581.094238,336.502808 582.557251,336.053223 584.020325,335.603638 
	C588.770569,334.127960 593.520874,332.652222 598.996582,331.195618 
	C602.144653,330.435059 604.567200,329.655457 606.989746,328.875854 
	C611.699890,327.608032 616.410034,326.340210 621.482727,324.978668 
z"/>
<path fill="#F0C7AF" opacity="1.000000" stroke="none" 
	d="
M526.447205,226.002777 
	C526.013367,222.544281 525.872314,219.012787 525.035156,215.654846 
	C524.538147,213.661240 522.944275,211.941116 521.539307,209.588608 
	C526.573364,205.564056 533.695374,204.565948 540.998108,205.598022 
	C552.518616,207.226151 563.957031,209.434769 575.432678,211.382935 
	C577.394653,211.716049 579.369019,211.975952 581.415771,212.281311 
	C583.578735,215.836212 582.385742,218.273636 579.434204,221.077316 
	C563.904114,235.829529 561.606934,254.905609 562.468872,274.905792 
	C562.526062,276.234009 562.751038,277.554443 562.836548,278.882446 
	C562.854675,279.163635 562.603760,279.462219 562.108582,280.595673 
	C553.442261,278.433594 544.604248,276.331604 535.850464,273.923309 
	C534.667480,273.597900 533.525330,271.880188 533.019714,270.556732 
	C531.070007,265.453461 529.386292,260.248566 527.900269,254.689240 
	C535.058716,258.282715 540.001343,257.991272 544.913757,253.311188 
	C551.820557,246.731064 553.823730,232.744263 549.082764,224.201385 
	C544.179260,215.365585 535.282532,214.512909 528.887634,222.304077 
	C527.955566,223.439651 527.254944,224.765167 526.447205,226.002777 
z"/>
<path fill="#F0C7AF" opacity="1.000000" stroke="none" 
	d="
M369.900635,213.142303 
	C366.509125,208.666901 363.117615,204.191513 359.577118,199.519516 
	C365.417114,191.142929 374.110016,188.126083 383.958435,188.309479 
	C392.413116,188.466904 400.842468,189.728653 409.300140,190.046432 
	C420.576782,190.470139 431.870087,190.448608 443.156097,190.626785 
	C448.299316,190.707993 453.461609,190.556671 458.581635,190.949066 
	C474.132996,192.140930 485.359100,203.610123 486.797211,220.624268 
	C481.516846,219.061661 476.616028,217.611389 471.369873,215.626099 
	C469.686859,208.002762 464.712250,202.714035 458.986572,202.292999 
	C454.209381,201.941711 449.226349,205.897476 446.986237,211.819458 
	C438.019165,211.984177 429.051605,212.253983 420.085419,212.214981 
	C418.505829,212.208115 416.832733,211.072174 415.371552,210.181000 
	C406.766388,204.932755 398.531830,198.953705 389.536102,194.508667 
	C382.544403,191.053909 381.263306,192.284225 378.193939,199.554398 
	C377.807007,200.470825 377.478485,201.411896 376.633057,202.739960 
	C374.062347,206.473007 371.981506,209.807648 369.900635,213.142303 
z"/>
<path fill="#DFDFDF" opacity="1.000000" stroke="none" 
	d="
M459.641785,370.193909 
	C462.170624,371.437225 464.183685,373.031860 466.474274,373.826996 
	C471.406555,375.539185 476.481659,376.840057 481.510925,378.842834 
	C471.359802,382.269135 461.196014,385.161835 450.633911,388.025574 
	C439.824005,384.979095 429.412445,381.961609 419.000854,378.944092 
	C425.263245,376.978516 431.533966,375.038818 437.779816,373.021942 
	C438.824036,372.684784 439.760101,372.012543 440.916901,371.158203 
	C447.142395,370.608459 453.197083,370.395630 459.641785,370.193909 
z"/>
<path fill="#DFDFDF" opacity="1.000000" stroke="none" 
	d="
M696.330200,300.898865 
	C697.920105,300.715942 699.510010,300.532990 701.457764,300.183289 
	C706.659119,298.701782 711.502625,297.386993 716.729431,295.979950 
	C723.751221,293.253601 730.443726,292.670746 737.639648,295.296753 
	C745.099121,297.443207 752.141541,299.650330 759.183899,301.857422 
	C759.222107,302.199493 759.260315,302.541534 759.298523,302.883606 
	C749.172913,305.644501 739.047363,308.405426 728.123840,311.133942 
	C724.455139,310.386963 721.548645,309.790405 718.720459,308.934967 
	C711.052856,306.615875 703.418579,304.186920 695.820435,301.624084 
	C695.937134,301.191681 696.090637,301.009064 696.330200,300.898865 
z"/>
<path fill="#5B5D5F" opacity="1.000000" stroke="none" 
	d="
M501.118408,358.304382 
	C490.743225,361.281342 480.368042,364.258270 469.595459,367.234436 
	C467.136780,361.615967 465.075470,355.998322 462.930023,350.151245 
	C474.583649,350.254578 487.222260,349.859406 499.618713,345.694824 
	C500.365875,350.172180 500.742126,354.238281 501.118408,358.304382 
z"/>
<path fill="#FDFAF9" opacity="1.000000" stroke="none" 
	d="
M526.350952,226.444733 
	C527.254944,224.765167 527.955566,223.439651 528.887634,222.304077 
	C535.282532,214.512909 544.179260,215.365585 549.082764,224.201385 
	C553.823730,232.744263 551.820557,246.731064 544.913757,253.311188 
	C540.001343,257.991272 535.058716,258.282715 527.808472,254.330551 
	C527.419922,254.364166 527.454956,254.336960 527.529785,254.059250 
	C527.340942,253.530289 527.077332,253.279053 526.813721,253.027802 
	C523.184631,249.446564 522.479309,245.601685 524.208130,240.566559 
	C525.680603,236.277939 525.630981,231.466721 526.350952,226.444733 
M540.147583,249.858704 
	C546.424316,244.893311 548.794861,236.735809 545.809082,229.875183 
	C544.248718,226.289856 541.792603,223.631897 537.442078,224.147629 
	C532.972778,224.677460 529.029724,230.064270 528.170288,236.488159 
	C527.377380,242.415817 529.937073,248.607254 534.185242,250.109787 
	C535.742676,250.660614 537.676880,250.146210 540.147583,249.858704 
z"/>
<path fill="#525557" opacity="1.000000" stroke="none" 
	d="
M501.521057,358.264832 
	C500.742126,354.238281 500.365875,350.172180 499.985291,345.664276 
	C512.212830,340.040619 521.177490,331.465637 526.918762,319.169739 
	C524.776611,330.739655 527.693970,343.194214 519.036072,353.409729 
	C513.271606,355.267181 507.597656,356.746246 501.521057,358.264832 
z"/>
<path fill="#2E2F30" opacity="1.000000" stroke="none" 
	d="
M358.885498,306.163513 
	C362.180908,314.862152 367.971283,321.266296 374.573059,326.966644 
	C380.563995,332.139587 380.242126,334.570892 371.972626,338.756897 
	C365.664307,326.670685 361.751587,312.183685 344.697205,308.587189 
	C348.910797,305.772858 352.299133,303.509735 356.228546,300.885193 
	C357.174591,302.712433 357.975861,304.260010 358.885498,306.163513 
z"/>
<path fill="#292B2C" opacity="1.000000" stroke="none" 
	d="
M400.988434,358.487061 
	C393.543518,356.854065 386.053406,354.843231 378.268829,352.633118 
	C377.217651,350.254913 376.460968,348.075989 375.915497,346.505341 
	C381.171692,343.777069 386.219727,340.972321 391.455627,338.578461 
	C392.654144,338.030487 394.741547,338.518463 395.941650,339.281647 
	C396.505524,339.640259 396.148163,341.840942 395.805542,343.096985 
	C395.566315,343.973785 394.423889,344.576538 394.072876,345.456451 
	C393.403259,347.134827 393.010803,348.923798 392.503265,350.666840 
	C394.327332,350.942596 396.169525,351.518097 397.970276,351.409058 
	C399.739929,351.301941 401.467468,350.499664 403.606750,350.001221 
	C404.000000,350.000000 403.995453,349.996521 403.995453,349.996521 
	C402.978058,352.700745 401.960632,355.404999 400.988434,358.487061 
z"/>
<path fill="#FBFBFB" opacity="1.000000" stroke="none" 
	d="
M183.060562,294.106140 
	C190.802216,292.034943 198.543854,289.963745 206.701691,287.899170 
	C209.345108,292.705383 211.572327,297.504974 213.309875,302.531067 
	C209.561813,302.786865 206.303406,302.816223 202.958160,302.502502 
	C197.613602,300.444061 192.318207,298.832550 187.121826,296.948059 
	C185.621796,296.404083 184.406433,295.075195 183.060562,294.106140 
z"/>
<path fill="#494B4D" opacity="1.000000" stroke="none" 
	d="
M543.067017,346.442993 
	C541.652161,347.292358 540.246521,347.730957 538.470459,348.160126 
	C539.412720,338.470703 540.660217,328.781189 542.066406,319.114777 
	C542.737061,314.504883 543.149841,309.707397 546.737854,306.259857 
	C547.246338,306.369293 547.754822,306.478729 548.263306,306.588165 
	C546.534302,319.736176 544.805237,332.884216 543.067017,346.442993 
z"/>
<path fill="#FDFAF9" opacity="1.000000" stroke="none" 
	d="
M447.406067,211.911407 
	C449.226349,205.897476 454.209381,201.941711 458.986572,202.292999 
	C464.712250,202.714035 469.686859,208.002762 471.027283,215.471664 
	C469.107910,215.491409 467.185822,215.130585 465.092285,214.101318 
	C460.654388,208.591827 458.612213,208.418701 452.092957,212.345383 
	C450.670593,212.231369 449.248260,212.117371 447.406067,211.911407 
z"/>
<path fill="#A0A0A0" opacity="1.000000" stroke="none" 
	d="
M203.045013,302.845581 
	C206.303406,302.816223 209.561813,302.786865 213.173340,302.865295 
	C214.576706,304.444275 215.626938,305.915466 216.882004,307.661316 
	C216.592010,307.928741 216.035507,308.069580 215.611328,307.892822 
	C201.141159,301.862823 188.714005,310.042938 175.174820,313.486023 
	C174.452286,312.865265 174.182220,312.372650 174.173370,311.630371 
	C176.013031,310.873962 177.582062,310.335480 179.171463,309.865936 
	C187.126389,307.515930 195.086639,305.183929 203.045013,302.845581 
z"/>
<path fill="#404243" opacity="1.000000" stroke="none" 
	d="
M584.041138,335.144653 
	C582.557251,336.053223 581.094238,336.502808 579.297546,336.930054 
	C579.978088,329.876556 580.992310,322.845398 582.029419,315.655121 
	C586.741577,316.308136 586.055969,319.582520 585.767151,322.397949 
	C585.345398,326.508911 584.644043,330.591156 584.041138,335.144653 
z"/>
<path fill="#404243" opacity="1.000000" stroke="none" 
	d="
M566.971863,306.141724 
	C566.803040,311.401825 566.342651,316.449066 565.896423,321.340240 
	C565.152954,321.543213 564.731873,321.800446 564.557922,321.685028 
	C558.772827,317.848053 564.385864,312.959137 563.526672,308.610291 
	C563.396240,307.949890 565.571472,306.834015 566.971863,306.141724 
z"/>
<path fill="#494B4D" opacity="1.000000" stroke="none" 
	d="
M532.638062,292.800476 
	C533.209778,289.056946 533.672546,285.660278 534.228699,281.578308 
	C537.327759,282.328430 539.925964,282.957306 542.881592,283.672699 
	C539.116089,287.771240 535.778687,291.403870 532.226440,295.270386 
	C532.350769,294.398193 532.439941,293.772797 532.638062,292.800476 
z"/>
<path fill="#E8E8E8" opacity="1.000000" stroke="none" 
	d="
M369.950745,213.490143 
	C371.981506,209.807648 374.062347,206.473007 376.473267,203.067749 
	C375.635712,208.604553 374.468140,214.211975 373.274261,219.945618 
	C372.250916,218.036224 371.125885,215.937103 369.950745,213.490143 
z"/>
<path fill="#444748" opacity="1.000000" stroke="none" 
	d="
M606.936279,328.536469 
	C604.567200,329.655457 602.144653,330.435059 599.343628,331.063477 
	C599.109131,329.141785 599.253113,327.371338 599.476196,324.628052 
	C602.365173,326.020172 604.624023,327.108643 606.936279,328.536469 
z"/>
<path fill="#AE5F55" opacity="1.000000" stroke="none" 
	d="
M452.413910,212.532562 
	C458.612213,208.418701 460.654388,208.591827 464.869873,213.809067 
	C460.790863,213.696732 456.762848,213.208221 452.413910,212.532562 
z"/>
<path fill="#292B2C" opacity="1.000000" stroke="none" 
	d="
M404.001953,350.002441 
	C404.090729,349.970184 404.177582,349.935455 404.129944,349.948639 
	C403.995453,349.996521 404.000000,350.000000 404.001953,350.002441 
z"/>
<path fill="#F0C7AF" opacity="1.000000" stroke="none" 
	d="
M526.815491,253.283264 
	C527.077332,253.279053 527.340942,253.530289 527.508728,254.054962 
	C527.214355,254.065170 527.015808,253.801941 526.815491,253.283264 
z"/>
<path fill="#B8B8B9" opacity="1.000000" stroke="none" 
	d="
M695.771057,301.801483 
	C703.418579,304.186920 711.052856,306.615875 718.720459,308.934967 
	C721.548645,309.790405 724.455139,310.386963 727.728943,311.209412 
	C727.622803,311.856293 727.113647,312.395325 726.146606,313.059021 
	C725.629639,313.288666 725.494507,313.444336 725.524780,313.489716 
	C725.652283,313.680725 725.828979,313.838837 725.987671,314.009003 
	C726.000061,325.364563 726.012451,336.720093 725.866272,348.633881 
	C725.810181,349.456085 725.912659,349.720032 726.015076,349.984009 
	C726.015076,349.984009 726.002441,350.000000 726.004395,350.462616 
	C726.011230,422.264862 726.016113,493.604462 725.790527,564.992981 
	C725.329346,565.213928 725.098633,565.386047 724.867981,565.558105 
	C725.272156,565.761475 725.676392,565.964844 726.080566,566.168152 
	C726.080566,579.604858 726.080566,593.041565 726.080566,605.079285 
	C713.088928,608.506897 701.154236,611.547241 689.280457,614.809021 
	C656.470886,623.821960 623.682190,632.911377 590.893738,642.000793 
	C557.949341,651.133362 525.017273,660.310303 492.071594,669.438110 
	C489.728851,670.087158 487.318665,670.492798 484.319702,671.146851 
	C484.190155,668.957092 484.020630,667.361267 484.014252,665.764709 
	C483.984955,658.435791 484.001068,651.106750 484.001282,643.777710 
	C484.001526,636.011353 484.032562,636.123230 491.324707,634.111145 
	C530.515625,623.297424 569.690308,612.424927 608.869751,601.569519 
	C645.652832,591.378052 682.435913,581.186768 719.213440,570.975342 
	C720.725952,570.555298 722.181824,569.931274 723.664124,569.402283 
	C723.702393,568.882324 723.740723,568.362366 723.778992,567.842407 
	C721.079712,567.218445 718.380371,566.594421 715.309937,565.504700 
	C714.938721,494.499359 714.938721,423.959808 714.938721,352.701782 
	C707.255920,354.943054 700.124878,357.023346 692.607178,359.103607 
	C685.726990,361.006622 679.233459,362.909668 672.346802,364.828491 
	C665.153198,366.793610 658.352539,368.742981 651.164673,370.718018 
	C643.182800,372.864868 635.588257,374.986053 627.607300,377.106598 
	C620.794128,378.972748 614.367310,380.839569 607.539734,382.746490 
	C599.423401,384.931915 591.707764,387.077179 583.619629,389.229706 
	C576.825623,391.140259 570.404175,393.043518 563.586243,394.943298 
	C557.125793,396.663055 551.061768,398.386322 544.612671,400.103516 
	C536.772034,402.211243 529.316406,404.325104 521.459961,406.516449 
	C515.337158,408.200531 509.615143,409.807098 503.492004,411.488586 
	C496.798370,413.285706 490.505920,415.007965 484.160950,416.208191 
	C484.072723,407.242523 483.944244,398.797699 484.046417,390.355682 
	C484.087891,386.930206 484.631592,383.510834 484.946777,380.088684 
	C499.069489,376.040009 513.164673,371.892365 527.319580,367.959686 
	C591.000244,350.266968 654.697815,332.635468 718.388855,314.980377 
	C720.045349,314.521179 721.696777,314.044067 723.418335,312.610016 
	C713.860474,310.085754 704.302612,307.561493 694.369141,304.643982 
	C694.586060,303.434296 695.178528,302.617889 695.771057,301.801483 
z"/>
<path fill="#DFDFDF" opacity="1.000000" stroke="none" 
	d="
M416.991547,671.916016 
	C382.161377,662.254822 347.334259,652.582581 312.500275,642.935120 
	C269.009766,630.890198 225.518524,618.847961 182.009399,606.870667 
	C178.991302,606.039795 177.734283,604.650085 177.814545,601.335632 
	C178.060364,591.184265 177.950500,581.024231 178.458527,570.417358 
	C179.600479,570.024780 180.290878,569.981018 180.921188,570.155029 
	C208.408401,577.741577 235.892197,585.340576 263.372192,592.953308 
	C281.572144,597.995117 299.770721,603.042236 317.960632,608.120178 
	C331.288879,611.840942 344.607666,615.595947 357.919922,619.373413 
	C366.666901,621.855469 375.380493,624.455750 384.134827,626.911133 
	C394.960175,629.947388 405.812195,632.888489 416.761871,636.339966 
	C416.911224,648.511536 416.951385,660.213806 416.991547,671.916016 
z"/>
<path fill="#B8B8B9" opacity="1.000000" stroke="none" 
	d="
M481.059265,629.889832 
	C481.226440,631.557739 481.393585,633.225647 481.078552,634.677246 
	C479.726746,634.653748 478.857117,634.846619 477.987518,635.039490 
	C477.987518,635.039490 477.993774,634.990784 477.598877,634.981689 
	C473.799133,635.993591 470.394318,637.014648 466.989471,638.035706 
	C466.989471,638.035706 466.996124,637.991272 466.669922,637.982422 
	C465.556274,638.330017 464.768829,638.686401 463.981354,639.042725 
	C463.981354,639.042725 463.992340,638.988220 463.646149,638.979858 
	C462.195038,639.326660 461.090088,639.681885 459.985138,640.037109 
	C459.985138,640.037109 459.994354,639.989441 459.646118,639.980652 
	C458.194458,640.326050 457.091095,640.680298 455.987732,641.034546 
	C455.987732,641.034546 455.996124,640.990479 455.613159,640.981995 
	C453.614594,640.973511 451.998993,640.973511 450.090088,640.973511 
	C450.090088,597.939575 450.090088,554.925598 450.351837,511.604858 
	C450.742310,509.487152 450.981201,507.676361 450.983154,505.865326 
	C451.010864,480.246796 451.006439,454.628235 451.386353,428.951202 
	C461.503662,426.262665 471.244415,423.632629 481.014679,421.470245 
	C481.049255,491.255219 481.054260,560.572510 481.059265,629.889832 
z"/>
<path fill="#DFDFDF" opacity="1.000000" stroke="none" 
	d="
M176.009460,566.005310 
	C176.009460,566.005310 175.555038,566.090393 174.923615,566.065613 
	C164.078842,562.994141 153.865479,559.947449 143.652115,556.900757 
	C143.777542,554.578857 144.011780,552.256958 144.012604,549.934998 
	C144.037216,481.284851 144.038635,412.634674 144.454361,343.498413 
	C146.622330,343.394989 148.391754,343.729858 150.135010,344.168640 
	C157.763779,346.088837 165.384949,348.039246 173.251373,350.005066 
	C173.493866,350.031433 173.981171,350.056610 173.987335,350.521698 
	C174.000443,420.397369 173.988556,489.808014 174.098236,559.218445 
	C174.101807,561.481750 175.344421,563.743042 176.009460,566.005310 
z"/>
<path fill="#DFDFDF" opacity="1.000000" stroke="none" 
	d="
M450.090088,511.911652 
	C450.090088,554.925598 450.090088,597.939575 450.090088,640.973511 
	C451.998993,640.973511 453.614594,640.973511 455.632812,640.992798 
	C454.301514,641.705750 452.567596,642.399292 450.083832,643.038452 
	C438.870270,640.018982 428.406586,637.054016 418.239014,633.899292 
	C419.017761,632.452393 419.500427,631.195312 419.947388,629.474609 
	C419.930359,559.671204 419.949036,490.331329 420.367188,420.998199 
	C430.505554,423.676178 440.244476,426.347382 450.003601,429.016571 
	C450.023804,429.014557 450.039032,428.977203 450.020081,429.447632 
	C450.030762,457.249268 450.060425,484.580444 450.090088,511.911652 
z"/>
<path fill="#B8B8B9" opacity="1.000000" stroke="none" 
	d="
M727.004944,350.006104 
	C734.571594,348.203735 742.142273,346.417999 749.702271,344.588074 
	C751.749268,344.092560 753.764038,343.463257 757.027710,342.550049 
	C757.027710,414.235199 757.027710,485.100891 756.624268,556.456299 
	C754.295166,557.317261 752.343872,557.588684 750.448547,558.077209 
	C742.668884,560.082703 734.906250,562.154358 727.099060,563.721802 
	C727.042175,492.163300 727.023560,421.084686 727.004944,350.006104 
z"/>
<path fill="#47494B" opacity="1.000000" stroke="none" 
	d="
M627.993652,377.107239 
	C635.588257,374.986053 643.182800,372.864868 651.510498,371.021301 
	C652.495789,373.407471 652.966309,375.515747 652.968018,377.624451 
	C653.009033,428.724884 652.988342,479.825317 653.006531,530.925781 
	C653.012634,548.068726 653.094849,565.211731 653.142273,582.354614 
	C645.058105,584.643921 636.973877,586.933228 628.510742,588.816406 
	C628.421143,585.786621 628.961304,583.163086 628.963196,580.539124 
	C629.010315,517.176880 629.020203,453.814636 628.956665,390.452484 
	C628.952209,386.003784 628.329041,381.555634 627.993652,377.107239 
z"/>
<path fill="#3C3E3F" opacity="1.000000" stroke="none" 
	d="
M583.992126,389.222443 
	C591.707764,387.077179 599.423401,384.931915 607.555664,383.238342 
	C607.979126,454.096497 607.985962,524.502930 607.992798,594.909302 
	C599.917114,597.237976 591.841492,599.566650 583.450134,601.485962 
	C583.422974,598.951538 583.962341,596.826477 583.963623,594.701233 
	C584.005127,526.208313 583.994751,457.715363 583.992126,389.222443 
z"/>
<path fill="#2E2F30" opacity="1.000000" stroke="none" 
	d="
M521.860840,406.438965 
	C529.316406,404.325104 536.772034,402.211243 544.681091,400.508911 
	C545.423035,403.375854 545.961853,405.831146 545.963562,408.286804 
	C546.009399,476.197021 546.000671,544.107239 546.000977,612.017456 
	C538.253235,614.290955 530.505493,616.564453 522.376343,618.376709 
	C521.996643,568.753479 522.012146,519.591431 521.993530,470.429413 
	C521.985413,449.099274 521.907227,427.769104 521.860840,406.438965 
z"/>
<path fill="#242627" opacity="1.000000" stroke="none" 
	d="
M481.449341,629.942871 
	C481.054260,560.572510 481.049255,491.255219 481.271423,421.250153 
	C482.403534,419.284973 483.308502,418.007599 484.213440,416.730194 
	C490.505920,415.007965 496.798370,413.285706 503.523041,411.954773 
	C504.303497,415.967560 504.950867,419.588745 504.955170,423.210693 
	C505.019867,477.825592 504.990051,532.440613 505.007690,587.055603 
	C505.011627,599.208923 505.112610,611.362244 505.168945,623.515503 
	C497.392426,625.675659 489.615906,627.835815 481.449341,629.942871 
z"/>
<path fill="#56585A" opacity="1.000000" stroke="none" 
	d="
M692.993835,359.103638 
	C700.124878,357.023346 707.255920,354.943054 714.938721,352.701782 
	C714.938721,423.959808 714.938721,494.499359 714.888306,565.502441 
	C707.849670,567.705811 700.861328,569.445679 693.501099,570.781494 
	C693.419434,567.754578 693.961182,565.131958 693.963135,562.508911 
	C694.010376,499.155029 694.020203,435.801117 693.956726,372.447296 
	C693.952271,367.999115 693.329224,363.551514 692.993835,359.103638 
z"/>
<path fill="#4C4E50" opacity="1.000000" stroke="none" 
	d="
M653.539795,582.294312 
	C653.094849,565.211731 653.012634,548.068726 653.006531,530.925781 
	C652.988342,479.825317 653.009033,428.724884 652.968018,377.624451 
	C652.966309,375.515747 652.495789,373.407471 651.897827,370.995667 
	C658.352539,368.742981 665.153198,366.793610 672.665283,365.135010 
	C673.584473,367.549225 673.972717,369.672516 673.973755,371.796021 
	C674.005737,437.719635 673.987976,503.643280 674.052490,569.566833 
	C674.054688,571.767334 674.832031,573.967041 675.248047,576.167114 
	C668.144470,578.189392 661.040894,580.211609 653.539795,582.294312 
z"/>
<path fill="#414345" opacity="1.000000" stroke="none" 
	d="
M608.380859,594.913208 
	C607.985962,524.502930 607.979126,454.096497 607.956421,383.198242 
	C614.367310,380.839569 620.794128,378.972748 627.607300,377.106598 
	C628.329041,381.555634 628.952209,386.003784 628.956665,390.452484 
	C629.020203,453.814636 629.010315,517.176880 628.963196,580.539124 
	C628.961304,583.163086 628.421143,585.786621 628.106750,588.853149 
	C621.644165,591.169678 615.206543,593.043335 608.380859,594.913208 
z"/>
<path fill="#505355" opacity="1.000000" stroke="none" 
	d="
M675.636719,576.146362 
	C674.832031,573.967041 674.054688,571.767334 674.052490,569.566833 
	C673.987976,503.643280 674.005737,437.719635 673.973755,371.796021 
	C673.972717,369.672516 673.584473,367.549225 673.058350,365.119263 
	C679.233459,362.909668 685.726990,361.006622 692.607178,359.103607 
	C693.329224,363.551514 693.952271,367.999115 693.956726,372.447296 
	C694.020203,435.801117 694.010376,499.155029 693.963135,562.508911 
	C693.961182,565.131958 693.419434,567.754578 693.100586,570.817993 
	C687.389832,572.880920 681.707642,574.503296 675.636719,576.146362 
z"/>
<path fill="#37393A" opacity="1.000000" stroke="none" 
	d="
M583.619629,389.229706 
	C583.994751,457.715363 584.005127,526.208313 583.963623,594.701233 
	C583.962341,596.826477 583.422974,598.951538 583.064941,601.480591 
	C577.251526,603.553467 571.507507,605.222351 565.380554,606.425049 
	C564.998413,538.405701 565.011353,470.852386 564.956970,403.299103 
	C564.954712,400.514771 564.321777,397.730927 563.982666,394.946838 
	C570.404175,393.043518 576.825623,391.140259 583.619629,389.229706 
z"/>
<path fill="#333436" opacity="1.000000" stroke="none" 
	d="
M563.586182,394.943329 
	C564.321777,397.730927 564.954712,400.514771 564.956970,403.299103 
	C565.011353,470.852386 564.998413,538.405701 564.995544,606.418701 
	C558.927429,608.599365 552.861328,610.320374 546.398071,612.029419 
	C546.000671,544.107239 546.009399,476.197021 545.963562,408.286804 
	C545.961853,405.831146 545.423035,403.375854 545.066162,400.515015 
	C551.061768,398.386322 557.125793,396.663055 563.586182,394.943329 
z"/>
<path fill="#28292B" opacity="1.000000" stroke="none" 
	d="
M505.564636,623.436462 
	C505.112610,611.362244 505.011627,599.208923 505.007690,587.055603 
	C504.990051,532.440613 505.019867,477.825592 504.955170,423.210693 
	C504.950867,419.588745 504.303497,415.967560 503.924194,411.879852 
	C509.615143,409.807098 515.337158,408.200531 521.459961,406.516449 
	C521.907227,427.769104 521.985413,449.099274 521.993530,470.429413 
	C522.012146,519.591431 521.996643,568.753479 521.992737,618.372070 
	C516.647156,620.338135 511.303741,621.847778 505.564636,623.436462 
z"/>
<path fill="#B8B8B9" opacity="1.000000" stroke="none" 
	d="
M176.320892,566.063354 
	C175.344421,563.743042 174.101807,561.481750 174.098236,559.218445 
	C173.988556,489.808014 174.000443,420.397369 174.086121,350.310364 
	C174.346176,349.360870 174.578339,349.164337 174.875244,349.044312 
	C178.431274,350.147217 181.987320,351.250122 185.764832,353.113159 
	C185.986450,422.168976 185.984222,490.464630 185.996780,558.760254 
	C185.997223,561.087891 186.146194,563.415527 185.840912,565.841492 
	C182.971237,566.627563 180.486557,567.315308 178.001877,568.002991 
	C177.545349,567.375793 177.088821,566.748657 176.320892,566.063354 
z"/>
<path fill="#FBFBFB" opacity="1.000000" stroke="none" 
	d="
M177.956421,568.326721 
	C180.486557,567.315308 182.971237,566.627563 186.228638,565.906494 
	C192.663315,567.316772 198.325287,568.760254 204.274246,570.438110 
	C210.041641,572.093018 215.522049,573.513611 221.335663,575.122986 
	C227.775787,576.929565 233.882721,578.547363 240.275452,580.404297 
	C247.676804,582.531921 254.792343,584.420288 262.198303,586.537354 
	C267.992645,588.172607 273.496552,589.579102 279.299744,591.225464 
	C285.700562,593.061646 291.802063,594.657898 298.190796,596.491577 
	C305.469055,598.554504 312.460083,600.380188 319.761383,602.459717 
	C326.715271,604.452637 333.358887,606.191650 340.333069,608.125549 
	C345.761536,609.700073 350.859436,611.079712 356.319580,612.658691 
	C363.452484,614.617554 370.223114,616.377075 377.269165,618.388672 
	C382.029480,619.768555 386.514435,620.896423 391.295044,622.260132 
	C401.054779,624.976685 410.518951,627.457458 419.983093,629.938171 
	C419.500427,631.195312 419.017761,632.452393 417.992859,634.039429 
	C417.184631,634.869751 416.918671,635.370178 416.652710,635.870667 
	C405.812195,632.888489 394.960175,629.947388 384.134827,626.911133 
	C375.380493,624.455750 366.666901,621.855469 357.919922,619.373413 
	C344.607666,615.595947 331.288879,611.840942 317.960632,608.120178 
	C299.770721,603.042236 281.572144,597.995117 263.372192,592.953308 
	C235.892197,585.340576 208.408401,577.741577 180.921188,570.155029 
	C180.290878,569.981018 179.600479,570.024780 178.541962,569.950806 
	C178.067551,569.506592 177.989258,569.078491 177.956421,568.326721 
z"/>
<path fill="#B8B8B9" opacity="1.000000" stroke="none" 
	d="
M143.306183,557.062378 
	C153.865479,559.947449 164.078842,562.994141 174.696350,566.107788 
	C175.100494,579.599792 175.100494,593.024780 175.100494,607.338806 
	C171.486496,606.401917 168.829147,605.740417 166.187088,605.022644 
	C159.469315,603.197876 152.699921,601.527893 146.086227,599.380188 
	C144.456818,598.850952 142.205566,596.761414 142.170990,595.342163 
	C141.875275,583.202942 142.011978,571.052856 142.079117,558.906372 
	C142.082214,558.343933 142.653549,557.784668 143.306183,557.062378 
z"/>
<path fill="#B8B8B9" opacity="1.000000" stroke="none" 
	d="
M416.761871,636.339966 
	C416.918671,635.370178 417.184631,634.869751 417.696747,634.229126 
	C428.406586,637.054016 438.870270,640.018982 449.722290,643.094788 
	C450.110657,656.627014 450.110657,670.048401 450.110657,684.192932 
	C441.832520,681.927124 434.525482,679.926270 427.217865,677.927429 
	C424.820587,677.271606 422.314484,676.864380 420.066376,675.871826 
	C418.825775,675.324158 418.017059,673.798340 417.002625,672.314758 
	C416.951385,660.213806 416.911224,648.511536 416.761871,636.339966 
z"/>
<path fill="#B8B8B9" opacity="1.000000" stroke="none" 
	d="
M173.008881,349.978668 
	C165.384949,348.039246 157.763779,346.088837 150.135010,344.168640 
	C148.391754,343.729858 146.622330,343.394989 144.466614,343.033356 
	C140.837952,341.321381 139.716721,338.805939 139.873474,335.003601 
	C140.304245,324.555054 140.249237,314.086456 141.067932,303.306091 
	C152.164276,305.986450 162.579147,308.986572 172.996674,312.456665 
	C173.002533,325.277313 173.005707,337.627991 173.008881,349.978668 
z"/>
<path fill="#DFDFDF" opacity="1.000000" stroke="none" 
	d="
M172.994019,311.986694 
	C162.579147,308.986572 152.164276,305.986450 141.344177,302.994934 
	C141.374527,302.521332 141.727753,301.751282 142.257858,301.599670 
	C152.242523,298.744293 162.182983,295.682129 172.288223,293.331848 
	C175.398697,292.608398 178.971115,293.871094 182.696289,294.165222 
	C184.406433,295.075195 185.621796,296.404083 187.121826,296.948059 
	C192.318207,298.832550 197.613602,300.444061 202.958160,302.502502 
	C195.086639,305.183929 187.126389,307.515930 179.171463,309.865936 
	C177.582062,310.335480 176.013031,310.873962 173.943680,311.652893 
	C173.452759,311.925140 172.994019,311.986694 172.994019,311.986694 
z"/>
<path fill="#ABABAC" opacity="1.000000" stroke="none" 
	d="
M726.758911,349.999023 
	C727.023560,421.084686 727.042175,492.163300 726.953247,563.899597 
	C726.611816,564.773682 726.336914,564.902588 726.020996,564.944092 
	C726.016113,493.604462 726.011230,422.264862 726.013489,350.454834 
	C726.020630,349.984467 726.512878,349.991943 726.758911,349.999023 
z"/>
<path fill="#DFDFDF" opacity="1.000000" stroke="none" 
	d="
M725.790527,564.992981 
	C726.336914,564.902588 726.611816,564.773682 726.991577,564.379517 
	C734.906250,562.154358 742.668884,560.082703 750.448547,558.077209 
	C752.343872,557.588684 754.295166,557.317261 756.642029,556.917725 
	C752.914795,558.350525 748.814941,559.973999 744.606079,561.233459 
	C738.739563,562.989014 732.791626,564.472351 726.479492,566.120117 
	C725.676392,565.964844 725.272156,565.761475 724.867981,565.558105 
	C725.098633,565.386047 725.329346,565.213928 725.790527,564.992981 
z"/>
<path fill="#DFDFDF" opacity="1.000000" stroke="none" 
	d="
M467.397034,638.060181 
	C470.394318,637.014648 473.799133,635.993591 477.621399,634.991394 
	C474.627411,636.035034 471.216034,637.059875 467.397034,638.060181 
z"/>
<path fill="#DFDFDF" opacity="1.000000" stroke="none" 
	d="
M460.352539,640.059570 
	C461.090088,639.681885 462.195038,639.326660 463.672180,638.989624 
	C462.936249,639.365845 461.828094,639.723938 460.352539,640.059570 
z"/>
<path fill="#DFDFDF" opacity="1.000000" stroke="none" 
	d="
M456.355896,641.066162 
	C457.091095,640.680298 458.194458,640.326050 459.667938,639.991211 
	C458.933380,640.373047 457.828735,640.735474 456.355896,641.066162 
z"/>
<path fill="#DFDFDF" opacity="1.000000" stroke="none" 
	d="
M478.357117,635.060059 
	C478.857117,634.846619 479.726746,634.653748 480.767761,634.712769 
	C480.201660,635.003235 479.464203,635.041870 478.357117,635.060059 
z"/>
<path fill="#DFDFDF" opacity="1.000000" stroke="none" 
	d="
M464.326599,639.052979 
	C464.768829,638.686401 465.556274,638.330017 466.689697,637.993164 
	C466.247711,638.362915 465.459778,638.713074 464.326599,639.052979 
z"/>
<path fill="#ABABAC" opacity="1.000000" stroke="none" 
	d="
M725.991333,313.758179 
	C725.828979,313.838837 725.652283,313.680725 725.524780,313.489716 
	C725.494507,313.444336 725.629639,313.288666 725.847656,313.094727 
	C726.002808,313.172974 725.998901,313.340179 725.991333,313.758179 
z"/>
<path fill="#ABABAC" opacity="1.000000" stroke="none" 
	d="
M726.014771,349.741699 
	C725.912659,349.720032 725.810181,349.456085 725.861572,349.103424 
	C726.015381,349.014740 726.014526,349.499390 726.014771,349.741699 
z"/>
<path fill="#262728" opacity="1.000000" stroke="none" 
	d="
M419.947388,629.474609 
	C410.518951,627.457458 401.054779,624.976685 391.295319,621.789856 
	C391.000000,553.592957 390.968811,486.102142 391.114655,418.611694 
	C391.120483,415.925232 392.809143,413.242462 393.713715,410.557953 
	C400.808289,412.406128 407.902832,414.254303 415.576050,416.443298 
	C417.425659,418.186584 418.696655,419.589020 419.967651,420.991455 
	C419.949036,490.331329 419.930359,559.671204 419.947388,629.474609 
z"/>
<path fill="#3B3D3F" opacity="1.000000" stroke="none" 
	d="
M319.451111,602.205811 
	C312.460083,600.380188 305.469055,598.554504 298.216736,596.006714 
	C297.970306,593.120789 297.998077,590.956970 297.998138,588.793152 
	C298.000458,523.873108 297.966125,458.953033 298.104919,394.033295 
	C298.111542,390.944458 299.647400,387.858856 300.471100,384.771759 
	C307.159180,386.522705 313.847290,388.273651 320.815613,390.690338 
	C321.063934,393.687836 321.004242,396.019592 321.004059,398.351379 
	C320.999023,464.160614 321.014587,529.969849 320.934845,595.779053 
	C320.932251,597.921875 319.967407,600.063599 319.451111,602.205811 
z"/>
<path fill="#494B4D" opacity="1.000000" stroke="none" 
	d="
M261.907898,586.308655 
	C254.792343,584.420288 247.676804,582.531921 240.278473,579.923889 
	C239.997208,508.806610 239.998734,438.408997 240.000259,368.011353 
	C247.110199,369.906189 254.220139,371.800995 261.665588,374.345398 
	C261.970001,445.432892 261.938934,515.870789 261.907898,586.308655 
z"/>
<path fill="#2E2F30" opacity="1.000000" stroke="none" 
	d="
M376.993774,618.136658 
	C370.223114,616.377075 363.452484,614.617554 356.714905,612.453247 
	C356.831970,608.860901 356.988525,605.673218 356.989258,602.485535 
	C357.003723,540.353882 356.974884,478.222260 357.046417,416.090729 
	C357.052307,410.968658 357.714203,405.847351 358.071320,400.725708 
	C364.176575,402.333832 370.281860,403.941956 376.693542,406.245117 
	C376.997925,477.338959 376.995850,547.737793 376.993774,618.136658 
z"/>
<path fill="#404243" opacity="1.000000" stroke="none" 
	d="
M300.164246,384.521637 
	C299.647400,387.858856 298.111542,390.944458 298.104919,394.033295 
	C297.966125,458.953033 298.000458,523.873108 297.998138,588.793152 
	C297.998077,590.956970 297.970306,593.120789 297.929504,595.769409 
	C291.802063,594.657898 285.700562,593.061646 279.299530,590.757751 
	C279.000000,522.504761 278.988037,454.959320 279.042328,387.413940 
	C279.044556,384.629974 279.667603,381.846497 280.001404,379.062805 
	C286.620056,380.799042 293.238739,382.535278 300.164246,384.521637 
z"/>
<path fill="#36383A" opacity="1.000000" stroke="none" 
	d="
M319.761383,602.459717 
	C319.967407,600.063599 320.932251,597.921875 320.934845,595.779053 
	C321.014587,529.969849 320.999023,464.160614 321.004059,398.351379 
	C321.004242,396.019592 321.063934,393.687836 321.142944,390.842712 
	C327.299835,391.972839 333.409668,393.616333 339.779968,395.985596 
	C340.027740,467.117828 340.015106,537.524231 340.002472,607.930664 
	C333.358887,606.191650 326.715271,604.452637 319.761383,602.459717 
z"/>
<path fill="#4E5052" opacity="1.000000" stroke="none" 
	d="
M239.686752,367.795288 
	C239.998734,438.408997 239.997208,508.806610 239.992676,579.684692 
	C233.882721,578.547363 227.775787,576.929565 221.334930,574.658691 
	C220.999084,503.581146 220.997177,433.156647 220.995270,362.732178 
	C227.121262,364.347839 233.247253,365.963501 239.686752,367.795288 
z"/>
<path fill="#56595B" opacity="1.000000" stroke="none" 
	d="
M203.987244,570.203735 
	C198.325287,568.760254 192.663315,567.316772 186.613647,565.808228 
	C186.146194,563.415527 185.997223,561.087891 185.996780,558.760254 
	C185.984222,490.464630 185.986450,422.168976 185.989410,353.399292 
	C191.784561,354.482941 197.576584,356.040619 203.684479,358.277954 
	C203.995987,429.372986 203.991623,499.788391 203.987244,570.203735 
z"/>
<path fill="#323335" opacity="1.000000" stroke="none" 
	d="
M340.333069,608.125549 
	C340.015106,537.524231 340.027740,467.117828 340.064026,396.225983 
	C345.896362,397.238312 351.705048,398.736084 357.792542,400.479767 
	C357.714203,405.847351 357.052307,410.968658 357.046417,416.090729 
	C356.974884,478.222260 357.003723,540.353882 356.989258,602.485535 
	C356.988525,605.673218 356.831970,608.860901 356.352661,612.253967 
	C350.859436,611.079712 345.761536,609.700073 340.333069,608.125549 
z"/>
<path fill="#444748" opacity="1.000000" stroke="none" 
	d="
M279.669098,378.870239 
	C279.667603,381.846497 279.044556,384.629974 279.042328,387.413940 
	C278.988037,454.959320 279.000000,522.504761 279.000244,590.517883 
	C273.496552,589.579102 267.992645,588.172607 262.198303,586.537354 
	C261.938934,515.870789 261.970001,445.432892 262.001770,374.530823 
	C267.780548,375.603638 273.558685,377.140656 279.669098,378.870239 
z"/>
<path fill="#525557" opacity="1.000000" stroke="none" 
	d="
M204.274231,570.438110 
	C203.991623,499.788391 203.995987,429.372986 204.000641,358.490540 
	C209.473618,359.441284 214.946304,360.859039 220.707123,362.504456 
	C220.997177,433.156647 220.999084,503.581146 221.001740,574.469910 
	C215.522049,573.513611 210.041641,572.093018 204.274231,570.438110 
z"/>
<path fill="#292B2C" opacity="1.000000" stroke="none" 
	d="
M377.269165,618.388672 
	C376.995850,547.737793 376.997925,477.338959 377.000061,406.471680 
	C382.351501,407.373932 387.702942,408.744598 393.384033,410.336609 
	C392.809143,413.242462 391.120483,415.925232 391.114655,418.611694 
	C390.968811,486.102142 391.000000,553.592957 390.999695,621.554016 
	C386.514435,620.896423 382.029480,619.768555 377.269165,618.388672 
z"/>
<path fill="#B8B8B9" opacity="1.000000" stroke="none" 
	d="
M420.367157,420.998230 
	C418.696655,419.589020 417.425659,418.186584 415.966736,416.491516 
	C416.165894,414.479462 416.881287,412.760925 416.885803,411.040497 
	C416.911652,401.216614 416.728424,391.392181 416.753418,381.568268 
	C416.755554,380.728333 417.759979,379.890961 418.649841,378.998230 
	C429.412445,381.961609 439.824005,384.979095 450.557465,388.432129 
	C450.589081,390.980896 450.064728,393.092194 450.047577,395.207581 
	C449.956177,406.477356 449.991730,417.748138 449.983337,429.018585 
	C440.244476,426.347382 430.505554,423.676178 420.367157,420.998230 
z"/>
<path fill="#ABABAC" opacity="1.000000" stroke="none" 
	d="
M172.996674,312.456665 
	C172.994019,311.986694 173.452759,311.925140 173.682465,311.902588 
	C174.182220,312.372650 174.452286,312.865265 174.836288,313.610870 
	C174.936432,325.274963 174.922653,336.686066 174.892059,348.570740 
	C174.578339,349.164337 174.346176,349.360870 174.079956,349.845276 
	C173.981171,350.056610 173.493866,350.031433 173.251373,350.005066 
	C173.005707,337.627991 173.002533,325.277313 172.996674,312.456665 
z"/>
<path fill="#010101" opacity="1.000000" stroke="none" 
	d="
M245.844604,315.411926 
	C246.295349,315.152954 246.684525,315.309875 247.254517,315.770020 
	C246.884567,315.991425 246.333801,315.909607 245.844604,315.411926 
z"/>
<path fill="#FDFAF9" opacity="1.000000" stroke="none" 
	d="
M410.966400,277.539795 
	C424.040161,284.371643 422.019653,307.041168 411.264404,314.708405 
	C405.014221,319.164062 398.059814,317.094849 394.087067,310.011017 
	C389.542877,301.908234 391.382080,288.412567 397.709076,281.619110 
	C401.314728,277.747620 405.374817,275.958496 410.966400,277.539795 
M398.704224,306.584930 
	C403.454803,311.840424 408.664490,311.580688 412.488617,305.750519 
	C415.584717,301.030334 416.379028,295.635864 414.303802,290.565399 
	C413.217743,287.911865 410.203766,284.703888 407.695648,284.352783 
	C405.176300,284.000122 401.305847,286.214752 399.610931,288.485962 
	C395.707275,293.716980 395.591797,299.855286 398.704224,306.584930 
z"/>
<path fill="#FDFAF9" opacity="1.000000" stroke="none" 
	d="
M485.933624,287.553345 
	C493.449310,292.588593 496.326050,301.637390 493.522888,311.642822 
	C492.642822,314.784149 491.274384,317.942200 489.447174,320.628479 
	C486.734650,324.616241 482.879120,327.496826 477.714813,326.801117 
	C472.401581,326.085236 469.194641,322.327118 467.511230,317.579163 
	C464.493286,309.067352 465.618896,300.821289 470.535980,293.286896 
	C474.056091,287.893066 479.087524,285.592468 485.933624,287.553345 
M477.137024,319.853607 
	C479.487213,319.408173 482.293823,319.631592 484.104736,318.395844 
	C490.327393,314.149689 491.744690,302.781616 487.194611,296.842621 
	C484.286377,293.046661 479.525909,292.566254 475.888824,295.867065 
	C468.993195,302.125275 469.356445,315.993805 477.137024,319.853607 
z"/>
<path fill="#AE5F55" opacity="1.000000" stroke="none" 
	d="
M442.641785,330.027527 
	C443.910492,329.126526 444.877655,328.464661 445.844818,327.802795 
	C445.230011,332.533173 442.146851,334.082184 438.338928,333.806671 
	C433.991150,333.492126 431.244598,331.000092 430.948364,325.974121 
	C434.152222,329.357544 437.063965,333.286163 442.641785,330.027527 
z"/>
<path fill="#AE5F55" opacity="1.000000" stroke="none" 
	d="
M436.439636,318.354279 
	C438.258789,317.504456 439.909546,316.755920 441.589935,316.682159 
	C441.951202,316.666321 443.024872,319.295715 442.670929,320.330597 
	C442.305176,321.400208 439.939819,322.914948 439.597778,322.664764 
	C438.247498,321.677032 437.348358,320.072662 436.439636,318.354279 
z"/>
<path fill="#FDFAF9" opacity="1.000000" stroke="none" 
	d="
M322.787354,250.199478 
	C325.917938,240.975388 335.410248,239.864609 342.375946,245.875610 
	C351.414276,253.675156 354.812439,264.063568 351.374268,273.340057 
	C349.119568,279.423523 343.555115,282.066650 337.400299,279.977814 
	C326.527893,276.287964 319.894531,263.055115 322.787354,250.199478 
M327.219086,256.850494 
	C327.249817,263.600433 329.640167,269.226990 335.501282,272.859161 
	C340.782745,276.132111 345.934601,273.925995 347.291168,267.875183 
	C348.644073,261.840668 346.325195,256.838623 342.267914,252.504700 
	C336.627686,246.479858 328.261047,248.169525 327.219086,256.850494 
z"/>
<path fill="#FDFAF9" opacity="1.000000" stroke="none" 
	d="
M284.658020,302.283081 
	C280.767639,314.420624 270.383575,316.488800 261.639984,306.925201 
	C256.342468,301.130768 253.207184,294.194580 254.022507,286.029633 
	C254.497421,281.273712 256.675842,277.402985 260.990082,275.214386 
	C265.517639,272.917633 269.833405,274.337982 273.543732,277.209503 
	C281.569031,283.420502 285.554810,291.602722 284.658020,302.283081 
M268.555573,305.470825 
	C275.738800,307.343567 280.116760,304.210144 279.871033,297.044006 
	C279.659760,290.883881 276.978516,285.798767 271.697052,282.473938 
	C266.238525,279.037659 260.819794,281.379639 259.791351,287.741089 
	C258.586578,295.193512 261.655823,300.945221 268.555573,305.470825 
z"/>
<path fill="#AE5F55" opacity="1.000000" stroke="none" 
	d="
M306.660858,305.596741 
	C307.283325,305.040497 308.215637,304.394562 308.900726,304.594727 
	C315.059875,306.394470 316.807739,305.576508 318.994354,299.640259 
	C319.188660,299.112885 319.526794,298.638458 319.960663,297.840515 
	C321.264679,301.858459 320.706268,304.266510 317.869202,306.243378 
	C314.187195,308.809021 310.439606,308.811737 306.660858,305.596741 
z"/>
<path fill="#AE5F55" opacity="1.000000" stroke="none" 
	d="
M311.335266,290.846405 
	C312.055084,292.639679 312.819885,294.346832 312.666138,295.966827 
	C312.612640,296.530548 309.921112,297.585632 309.089294,297.154022 
	C307.937592,296.556458 306.459290,294.047821 306.783356,293.621582 
	C307.765594,292.329681 309.548370,291.646423 311.335266,290.846405 
z"/>
<path fill="#FDFAF9" opacity="1.000000" stroke="none" 
	d="
M615.800781,264.935364 
	C622.850220,265.947021 625.601318,270.675690 627.056458,276.482025 
	C629.420288,285.913483 627.541321,294.420441 620.459106,301.221832 
	C614.680298,306.771484 608.605896,306.318085 603.669128,300.131714 
	C596.168274,290.732269 598.950684,274.774567 607.547607,267.532135 
	C609.504639,265.883484 612.741638,265.754120 615.800781,264.935364 
M619.004395,273.238770 
	C613.990234,270.919617 610.751709,271.511475 607.783875,275.730835 
	C604.109253,280.955200 603.289795,286.746552 605.709167,292.697479 
	C608.441101,299.417267 615.406311,300.205170 619.819641,294.454254 
	C624.378845,288.513275 624.284851,280.013702 619.004395,273.238770 
z"/>
<path fill="#AE5F55" opacity="1.000000" stroke="none" 
	d="
M647.902466,310.724335 
	C646.443481,309.240845 645.358398,307.720856 644.273315,306.200867 
	C645.583923,305.458099 646.851562,304.272095 648.221252,304.139343 
	C649.037537,304.060211 650.892517,305.856689 650.749512,306.423828 
	C650.363159,307.955627 649.157166,309.280701 647.902466,310.724335 
z"/>
<path fill="#A0A0A0" opacity="1.000000" stroke="none" 
	d="
M450.003571,429.016571 
	C449.991730,417.748138 449.956177,406.477356 450.047577,395.207581 
	C450.064728,393.092194 450.589081,390.980896 450.955811,388.461121 
	C461.196014,385.161835 471.359802,382.269135 481.768341,379.090332 
	C482.801025,379.124847 483.588898,379.445496 484.661804,379.927429 
	C484.631592,383.510834 484.087891,386.930206 484.046417,390.355682 
	C483.944244,398.797699 484.072723,407.242523 484.160950,416.208191 
	C483.308502,418.007599 482.403534,419.284973 481.241882,420.782471 
	C471.244415,423.632629 461.503662,426.262665 451.143555,428.943848 
	C450.524231,428.994934 450.039032,428.977203 450.039032,428.977203 
	C450.039032,428.977203 450.023804,429.014557 450.003571,429.016571 
z"/>
<path fill="#AE5F55" opacity="1.000000" stroke="none" 
	d="
M695.820435,301.624084 
	C695.178528,302.617889 694.586060,303.434296 693.970093,304.589050 
	C693.501587,305.143280 693.072815,305.405029 692.609314,305.568268 
	C684.245239,308.513733 681.497803,307.538147 679.495911,300.928467 
	C677.103821,293.030670 681.145874,283.253876 687.459656,281.768250 
	C691.503784,280.816650 694.907654,282.655823 695.771545,286.198242 
	C696.855591,290.642883 696.411316,295.460266 696.478394,300.507812 
	C696.090637,301.009064 695.937134,301.191681 695.820435,301.624084 
z"/>
<path fill="#AE5F55" opacity="1.000000" stroke="none" 
	d="
M539.793396,249.988220 
	C537.676880,250.146210 535.742676,250.660614 534.185242,250.109787 
	C529.937073,248.607254 527.377380,242.415817 528.170288,236.488159 
	C529.029724,230.064270 532.972778,224.677460 537.442078,224.147629 
	C541.792603,223.631897 544.248718,226.289856 545.809082,229.875183 
	C548.794861,236.735809 546.424316,244.893311 539.793396,249.988220 
z"/>
<path fill="#ABABAC" opacity="1.000000" stroke="none" 
	d="
M450.020081,429.447632 
	C450.039032,428.977203 450.524231,428.994934 450.767029,429.002319 
	C451.006439,454.628235 451.010864,480.246796 450.983154,505.865326 
	C450.981201,507.676361 450.742310,509.487152 450.351837,511.604858 
	C450.060425,484.580444 450.030762,457.249268 450.020081,429.447632 
z"/>
<path fill="#AE5F55" opacity="1.000000" stroke="none" 
	d="
M398.476013,306.250183 
	C395.591797,299.855286 395.707275,293.716980 399.610931,288.485962 
	C401.305847,286.214752 405.176300,284.000122 407.695648,284.352783 
	C410.203766,284.703888 413.217743,287.911865 414.303802,290.565399 
	C416.379028,295.635864 415.584717,301.030334 412.488617,305.750519 
	C408.664490,311.580688 403.454803,311.840424 398.476013,306.250183 
z"/>
<path fill="#AE5F55" opacity="1.000000" stroke="none" 
	d="
M476.772552,319.698090 
	C469.356445,315.993805 468.993195,302.125275 475.888824,295.867065 
	C479.525909,292.566254 484.286377,293.046661 487.194611,296.842621 
	C491.744690,302.781616 490.327393,314.149689 484.104736,318.395844 
	C482.293823,319.631592 479.487213,319.408173 476.772552,319.698090 
z"/>
<path fill="#AE5F55" opacity="1.000000" stroke="none" 
	d="
M327.295349,256.459595 
	C328.261047,248.169525 336.627686,246.479858 342.267914,252.504700 
	C346.325195,256.838623 348.644073,261.840668 347.291168,267.875183 
	C345.934601,273.925995 340.782745,276.132111 335.501282,272.859161 
	C329.640167,269.226990 327.249817,263.600433 327.295349,256.459595 
z"/>
<path fill="#AE5F55" opacity="1.000000" stroke="none" 
	d="
M268.208496,305.284180 
	C261.655823,300.945221 258.586578,295.193512 259.791351,287.741089 
	C260.819794,281.379639 266.238525,279.037659 271.697052,282.473938 
	C276.978516,285.798767 279.659760,290.883881 279.871033,297.044006 
	C280.116760,304.210144 275.738800,307.343567 268.208496,305.284180 
z"/>
<path fill="#AE5F55" opacity="1.000000" stroke="none" 
	d="
M619.297607,273.504456 
	C624.284851,280.013702 624.378845,288.513275 619.819641,294.454254 
	C615.406311,300.205170 608.441101,299.417267 605.709167,292.697479 
	C603.289795,286.746552 604.109253,280.955200 607.783875,275.730835 
	C610.751709,271.511475 613.990234,270.919617 619.297607,273.504456 
z"/>
</svg>